<svg width="70" height="59" viewBox="0 0 70 59" fill="none" xmlns="http://www.w3.org/2000/svg">
<path d="M69 48.2825C61.5 47.2825 28.5 48.7825 6 55.2825V58.2825C47.2 47.8825 65 48.028 69 48.2825Z" fill="black" stroke="black" stroke-width="0.2"/>
<path d="M24.19 24.95C24.2433 25.05 24.2733 25.14 24.28 25.22C24.2933 25.3 24.3 25.4167 24.3 25.57V31.12C24.3 31.58 24.1733 31.85 23.92 31.93C23.7933 31.97 23.6333 31.99 23.44 31.99C23.2467 31.99 23.0933 31.9733 22.98 31.94C22.8667 31.9067 22.78 31.8667 22.72 31.82C22.66 31.7733 22.6133 31.7067 22.58 31.62C22.5467 31.5067 22.53 31.3333 22.53 31.1V27.75C22.3633 27.9567 22.12 28.2867 21.8 28.74C21.48 29.1867 21.2767 29.4667 21.19 29.58C21.1033 29.6933 21.0433 29.7733 21.01 29.82C20.9767 29.86 20.8933 29.92 20.76 30C20.6333 30.0733 20.4933 30.11 20.34 30.11C20.1933 30.11 20.0567 30.0767 19.93 30.01C19.81 29.9367 19.7233 29.8667 19.67 29.8L19.59 29.69C19.4567 29.5233 19.1933 29.17 18.8 28.63C18.4067 28.0833 18.1933 27.79 18.16 27.75V31.12C18.16 31.2733 18.1533 31.39 18.14 31.47C18.1333 31.5433 18.1033 31.6267 18.05 31.72C17.95 31.9 17.69 31.99 17.27 31.99C16.8633 31.99 16.61 31.9 16.51 31.72C16.4567 31.6267 16.4233 31.54 16.41 31.46C16.4033 31.38 16.4 31.26 16.4 31.1V25.55C16.4 25.3967 16.4033 25.2833 16.41 25.21C16.4233 25.13 16.4567 25.04 16.51 24.94C16.61 24.7667 16.87 24.68 17.29 24.68C17.47 24.68 17.6233 24.7033 17.75 24.75C17.8833 24.79 17.97 24.8333 18.01 24.88L18.07 24.94L20.34 27.92C21.4733 26.42 22.23 25.43 22.61 24.95C22.7233 24.77 22.99 24.68 23.41 24.68C23.8367 24.68 24.0967 24.77 24.19 24.95ZM30.1812 28.74C30.1812 29.1467 30.0778 29.45 29.8712 29.65C29.6712 29.8433 29.4478 29.94 29.2012 29.94H26.8312C26.8312 30.1267 26.9412 30.2833 27.1612 30.41C27.3812 30.5367 27.6012 30.6 27.8212 30.6C28.2078 30.6 28.5112 30.56 28.7312 30.48L28.8412 30.44C29.0012 30.3667 29.1345 30.33 29.2412 30.33C29.4545 30.33 29.6378 30.48 29.7912 30.78C29.8778 30.96 29.9212 31.1133 29.9212 31.24C29.9212 31.8333 29.2112 32.13 27.7912 32.13C27.2978 32.13 26.8578 32.0467 26.4712 31.88C26.0912 31.7067 25.7945 31.48 25.5812 31.2C25.1612 30.66 24.9512 30.0567 24.9512 29.39C24.9512 28.55 25.2212 27.88 25.7612 27.38C26.3078 26.8733 26.9878 26.62 27.8012 26.62C28.7278 26.62 29.4078 26.9467 29.8412 27.6C30.0678 27.9467 30.1812 28.3267 30.1812 28.74ZM28.0712 29.03C28.3245 29.03 28.4512 28.9233 28.4512 28.71C28.4512 28.5567 28.3912 28.4333 28.2712 28.34C28.1578 28.2467 27.9912 28.2 27.7712 28.2C27.5578 28.2 27.3445 28.29 27.1312 28.47C26.9178 28.6433 26.8112 28.83 26.8112 29.03H28.0712ZM34.1736 31.34C33.9203 31.6733 33.5169 31.84 32.9636 31.84C32.4103 31.84 31.8903 31.5867 31.4036 31.08C30.9236 30.5667 30.6836 29.97 30.6836 29.29C30.6836 28.61 30.9269 28.0133 31.4136 27.5C31.9003 26.9867 32.4336 26.73 33.0136 26.73C33.2403 26.73 33.4469 26.7733 33.6336 26.86C33.8203 26.94 33.9469 27.0167 34.0136 27.09C34.0869 27.1567 34.1436 27.22 34.1836 27.28C34.2036 27.0933 34.2703 26.9533 34.3836 26.86C34.5036 26.76 34.6936 26.71 34.9536 26.71C35.2136 26.71 35.4036 26.73 35.5236 26.77C35.6436 26.81 35.7269 26.88 35.7736 26.98C35.8269 27.0733 35.8569 27.1567 35.8636 27.23C35.8769 27.3033 35.8836 27.4167 35.8836 27.57V31.71C35.8836 32.4767 35.6169 33.0933 35.0836 33.56C34.5503 34.0333 33.9503 34.27 33.2836 34.27C32.7769 34.27 32.2936 34.1467 31.8336 33.9C31.3736 33.6533 31.1436 33.43 31.1436 33.23C31.1436 32.97 31.2436 32.74 31.4436 32.54C31.5703 32.4 31.6669 32.3033 31.7336 32.25C31.8069 32.1967 31.8903 32.17 31.9836 32.17C32.0769 32.17 32.1736 32.21 32.2736 32.29C32.5936 32.5367 32.9403 32.66 33.3136 32.66C33.5669 32.66 33.7736 32.56 33.9336 32.36C34.0936 32.16 34.1736 31.92 34.1736 31.64V31.34ZM32.3936 29.3C32.3936 29.5133 32.4769 29.7067 32.6436 29.88C32.8169 30.0533 33.0236 30.14 33.2636 30.14C33.5103 30.14 33.7136 30.0533 33.8736 29.88C34.0336 29.7 34.1136 29.5067 34.1136 29.3C34.1136 29.0867 34.0369 28.89 33.8836 28.71C33.7303 28.5233 33.5236 28.43 33.2636 28.43C33.0036 28.43 32.7936 28.52 32.6336 28.7C32.4736 28.88 32.3936 29.08 32.3936 29.3ZM40.1032 27.29C40.1432 26.9167 40.4065 26.73 40.8932 26.73C41.1532 26.73 41.3465 26.75 41.4732 26.79C41.5999 26.83 41.6865 26.9 41.7332 27C41.7865 27.1 41.8165 27.19 41.8232 27.27C41.8365 27.3433 41.8432 27.4567 41.8432 27.61V31.11C41.8432 31.2633 41.8365 31.38 41.8232 31.46C41.8165 31.5333 41.7899 31.62 41.7432 31.72C41.6499 31.8933 41.4199 31.98 41.0532 31.98C40.6932 31.98 40.4499 31.9367 40.3232 31.85C40.2032 31.7567 40.1332 31.6233 40.1132 31.45C39.8665 31.8033 39.4532 31.98 38.8732 31.98C38.2999 31.98 37.7665 31.7167 37.2732 31.19C36.7799 30.6633 36.5332 30.0533 36.5332 29.36C36.5332 28.66 36.7799 28.05 37.2732 27.53C37.7732 27.0033 38.3199 26.74 38.9132 26.74C39.1399 26.74 39.3465 26.78 39.5332 26.86C39.7199 26.94 39.8499 27.0167 39.9232 27.09C39.9965 27.1567 40.0565 27.2233 40.1032 27.29ZM38.2832 29.37C38.2832 29.59 38.3699 29.79 38.5432 29.97C38.7165 30.1433 38.9265 30.23 39.1732 30.23C39.4199 30.23 39.6232 30.14 39.7832 29.96C39.9499 29.78 40.0332 29.5833 40.0332 29.37C40.0332 29.15 39.9532 28.9467 39.7932 28.76C39.6399 28.5733 39.4299 28.48 39.1632 28.48C38.9032 28.48 38.6899 28.5733 38.5232 28.76C38.3632 28.9467 38.2832 29.15 38.2832 29.37ZM45.2795 30.97C45.1062 30.7567 45.0195 30.5667 45.0195 30.4C45.0195 30.2267 45.1629 30 45.4495 29.72C45.6162 29.56 45.7929 29.48 45.9795 29.48C46.1662 29.48 46.4262 29.6467 46.7595 29.98C46.8529 30.0933 46.9862 30.2033 47.1595 30.31C47.3329 30.41 47.4929 30.46 47.6395 30.46C48.2595 30.46 48.5695 30.2067 48.5695 29.7C48.5695 29.5467 48.4829 29.42 48.3095 29.32C48.1429 29.2133 47.9329 29.1367 47.6795 29.09C47.4262 29.0433 47.1529 28.97 46.8595 28.87C46.5662 28.7633 46.2929 28.64 46.0395 28.5C45.7862 28.36 45.5729 28.14 45.3995 27.84C45.2329 27.5333 45.1495 27.1667 45.1495 26.74C45.1495 26.1533 45.3662 25.6433 45.7995 25.21C46.2395 24.77 46.8362 24.55 47.5895 24.55C47.9895 24.55 48.3529 24.6033 48.6795 24.71C49.0129 24.81 49.2429 24.9133 49.3695 25.02L49.6195 25.21C49.8262 25.4033 49.9295 25.5667 49.9295 25.7C49.9295 25.8333 49.8495 26.0167 49.6895 26.25C49.4629 26.5833 49.2295 26.75 48.9895 26.75C48.8495 26.75 48.6762 26.6833 48.4695 26.55C48.4495 26.5367 48.4095 26.5033 48.3495 26.45C48.2962 26.3967 48.2462 26.3533 48.1995 26.32C48.0595 26.2333 47.8795 26.19 47.6595 26.19C47.4462 26.19 47.2662 26.2433 47.1195 26.35C46.9795 26.45 46.9095 26.5933 46.9095 26.78C46.9095 26.96 46.9929 27.1067 47.1595 27.22C47.3329 27.3333 47.5462 27.41 47.7995 27.45C48.0529 27.49 48.3295 27.5533 48.6295 27.64C48.9295 27.72 49.2062 27.82 49.4595 27.94C49.7129 28.06 49.9229 28.27 50.0895 28.57C50.2629 28.8633 50.3495 29.2267 50.3495 29.66C50.3495 30.0933 50.2629 30.4767 50.0895 30.81C49.9162 31.1367 49.6895 31.39 49.4095 31.57C48.8695 31.9233 48.2929 32.1 47.6795 32.1C47.3662 32.1 47.0695 32.0633 46.7895 31.99C46.5095 31.91 46.2829 31.8133 46.1095 31.7C45.7562 31.4867 45.5095 31.28 45.3695 31.08L45.2795 30.97ZM53.9196 26.75C54.5863 26.75 55.1396 27.0033 55.5796 27.51C56.0263 28.0167 56.2496 28.6367 56.2496 29.37V31.13C56.2496 31.2833 56.2429 31.4 56.2296 31.48C56.2229 31.5533 56.1929 31.64 56.1396 31.74C56.0529 31.9133 55.7963 32 55.3696 32C54.9629 32 54.7096 31.9133 54.6096 31.74C54.5563 31.64 54.5229 31.55 54.5096 31.47C54.5029 31.39 54.4996 31.27 54.4996 31.11V29.36C54.4996 29.0867 54.4229 28.8733 54.2696 28.72C54.1163 28.5667 53.9196 28.49 53.6796 28.49C53.4463 28.49 53.2396 28.5633 53.0596 28.71C52.8796 28.85 52.7763 29.01 52.7496 29.19V31.13C52.7496 31.2833 52.7429 31.4 52.7296 31.48C52.7229 31.5533 52.6929 31.64 52.6396 31.74C52.5529 31.9133 52.2963 32 51.8696 32C51.4496 32 51.1929 31.91 51.0996 31.73C51.0529 31.63 51.0229 31.5433 51.0096 31.47C51.0029 31.3967 50.9996 31.28 50.9996 31.12V25.14C50.9996 24.9867 51.0029 24.8733 51.0096 24.8C51.0229 24.72 51.0529 24.6333 51.0996 24.54C51.1929 24.36 51.4529 24.27 51.8796 24.27C52.2996 24.27 52.5529 24.36 52.6396 24.54C52.6929 24.64 52.7229 24.73 52.7296 24.81C52.7429 24.8833 52.7496 24.9967 52.7496 25.15V27.36C53.0829 26.9533 53.4729 26.75 53.9196 26.75ZM56.9043 29.37C56.9043 28.57 57.1843 27.91 57.7443 27.39C58.3043 26.87 58.9443 26.61 59.6643 26.61C60.3843 26.61 61.021 26.87 61.5743 27.39C62.1276 27.9033 62.4043 28.56 62.4043 29.36C62.4043 29.9133 62.261 30.4067 61.9743 30.84C61.6876 31.2667 61.3376 31.5833 60.9243 31.79C60.5176 31.99 60.0943 32.09 59.6543 32.09C59.2143 32.09 58.7876 31.9833 58.3743 31.77C57.961 31.55 57.611 31.23 57.3243 30.81C57.0443 30.3833 56.9043 29.9033 56.9043 29.37ZM58.9943 30.09C59.2076 30.25 59.4243 30.33 59.6443 30.33C59.8643 30.33 60.0843 30.2467 60.3043 30.08C60.5243 29.9133 60.6343 29.6667 60.6343 29.34C60.6343 29.0133 60.531 28.77 60.3243 28.61C60.1176 28.45 59.8943 28.37 59.6543 28.37C59.4143 28.37 59.191 28.4533 58.9843 28.62C58.7776 28.7867 58.6743 29.0333 58.6743 29.36C58.6743 29.68 58.781 29.9233 58.9943 30.09ZM63.0504 33.43V27.59C63.0504 27.4367 63.0537 27.3233 63.0604 27.25C63.0737 27.1767 63.1037 27.0933 63.1504 27C63.2437 26.82 63.4671 26.73 63.8204 26.73C64.1737 26.73 64.4104 26.7767 64.5304 26.87C64.6571 26.9567 64.7304 27.0867 64.7504 27.26C65.0037 26.9133 65.4004 26.74 65.9404 26.74C66.4871 26.74 67.0037 26.9967 67.4904 27.51C67.9771 28.0233 68.2204 28.62 68.2204 29.3C68.2204 29.98 67.9771 30.5767 67.4904 31.09C67.0104 31.6033 66.4971 31.86 65.9504 31.86C65.4037 31.86 65.0071 31.7067 64.7604 31.4V33.42C64.7604 33.5733 64.7537 33.6867 64.7404 33.76C64.7337 33.8333 64.7037 33.9167 64.6504 34.01C64.6037 34.11 64.5204 34.18 64.4004 34.22C64.2804 34.26 64.1171 34.28 63.9104 34.28C63.7037 34.28 63.5371 34.26 63.4104 34.22C63.2904 34.18 63.2037 34.1133 63.1504 34.02C63.1037 33.9267 63.0737 33.8433 63.0604 33.77C63.0537 33.6967 63.0504 33.5833 63.0504 33.43ZM65.0304 28.72C64.8771 28.9 64.8004 29.0967 64.8004 29.31C64.8004 29.5233 64.8771 29.72 65.0304 29.9C65.1904 30.0733 65.3904 30.16 65.6304 30.16C65.8771 30.16 66.0837 30.0733 66.2504 29.9C66.4237 29.7267 66.5104 29.53 66.5104 29.31C66.5104 29.09 66.4304 28.8933 66.2704 28.72C66.1104 28.54 65.9004 28.45 65.6404 28.45C65.3871 28.45 65.1837 28.54 65.0304 28.72Z" fill="black"/>
<path d="M5 36L4 50V51L0.5 49.5L1.5 43V48.5L2.5 49L5 36Z" fill="black" stroke="black" stroke-width="0.5"/>
<path d="M33 11.5L6.5 9.5L8 10L5.5 52C5.4609 52.1647 5.83256 52.3337 5.5 52.5C26.359 48.3282 37.725 47.3207 43.9619 47.0775C17.8929 47.6194 9.10487 49.553 8 50.5L10.2652 11.5H33Z" fill="black"/>
<path fill-rule="evenodd" clip-rule="evenodd" d="M5.5 52.5V52C5.4609 52.1647 5.83256 52.3337 5.5 52.5ZM43.9619 47.0775C45.9475 47 47.4133 47 48.5 47C46.9321 47.0212 45.42 47.0471 43.9619 47.0775Z" fill="black"/>
<path d="M6.5 9.5L33 11.5H10.2652L8 50.5C9.10487 49.553 17.8929 47.6194 43.9619 47.0775M6.5 9.5L8 10L5.5 52M6.5 9.5L3.5 29.5L0.5 49.5C3.16977 50.5012 5 53 5.5 52M5.5 52.5C26.359 48.3282 37.725 47.3207 43.9619 47.0775M5.5 52.5V52M5.5 52.5C5.83256 52.3337 5.4609 52.1647 5.5 52M43.9619 47.0775C45.9475 47 47.4133 47 48.5 47C46.9321 47.0212 45.42 47.0471 43.9619 47.0775Z" stroke="black" stroke-width="0.8"/>
<circle cx="30" cy="16" r="2" fill="black"/>
<circle cx="14" cy="16" r="2" fill="black"/>
<path d="M14.1783 15V9.46055C14 0.5 28.6242 -2.62554 30 9.46054V15" stroke="black" stroke-width="2"/>
<path d="M25.2354 37.785C25.1104 37.785 25.0113 37.8175 24.9379 37.8825C24.8663 37.9458 24.8304 38.0292 24.8304 38.1325C24.8304 38.1975 24.8454 38.2558 24.8754 38.3075C24.9054 38.3575 24.9596 38.4042 25.0379 38.4475C25.1163 38.4892 25.2279 38.5283 25.3729 38.565C25.6046 38.6183 25.7854 38.6842 25.9154 38.7625C26.0471 38.8392 26.1396 38.9267 26.1929 39.025C26.2463 39.1233 26.2729 39.2325 26.2729 39.3525C26.2729 39.5642 26.1963 39.735 26.0429 39.865C25.8913 39.9933 25.6738 40.0575 25.3904 40.0575C25.2871 40.0575 25.2013 40.0483 25.1329 40.03C25.0663 40.0117 25.0104 39.9933 24.9654 39.975C24.9204 39.9567 24.8804 39.9475 24.8454 39.9475C24.8121 39.9475 24.7863 39.9575 24.7679 39.9775C24.7496 39.9958 24.7321 40.0142 24.7154 40.0325C24.6988 40.0508 24.6754 40.06 24.6454 40.06C24.6221 40.06 24.6038 40.0525 24.5904 40.0375C24.5771 40.0242 24.5646 39.9992 24.5529 39.9625L24.3679 39.44C24.3529 39.3933 24.3479 39.355 24.3529 39.325C24.3596 39.2933 24.3788 39.2717 24.4104 39.26C24.4421 39.2483 24.4696 39.2492 24.4929 39.2625C24.5179 39.2742 24.5396 39.2958 24.5579 39.3275C24.6313 39.4642 24.7104 39.5725 24.7954 39.6525C24.8821 39.7308 24.9729 39.7867 25.0679 39.82C25.1646 39.8533 25.2629 39.87 25.3629 39.87C25.5213 39.87 25.6396 39.8367 25.7179 39.77C25.7979 39.7033 25.8379 39.615 25.8379 39.505C25.8379 39.44 25.8213 39.3808 25.7879 39.3275C25.7546 39.2725 25.6938 39.2217 25.6054 39.175C25.5171 39.1283 25.3913 39.085 25.2279 39.045C25.0246 38.9967 24.8621 38.9375 24.7404 38.8675C24.6204 38.7975 24.5338 38.7133 24.4804 38.615C24.4288 38.5167 24.4029 38.4025 24.4029 38.2725C24.4029 38.1392 24.4363 38.0217 24.5029 37.92C24.5696 37.8183 24.6638 37.7392 24.7854 37.6825C24.9071 37.6242 25.0496 37.595 25.2129 37.595C25.3179 37.595 25.4029 37.605 25.4679 37.625C25.5346 37.645 25.5888 37.6658 25.6304 37.6875C25.6738 37.7075 25.7121 37.7175 25.7454 37.7175C25.7821 37.7175 25.8104 37.7075 25.8304 37.6875C25.8504 37.6658 25.8688 37.645 25.8854 37.625C25.9021 37.605 25.9246 37.595 25.9529 37.595C25.9729 37.595 25.9896 37.6025 26.0029 37.6175C26.0179 37.6308 26.0288 37.6542 26.0354 37.6875L26.1779 38.185C26.1896 38.235 26.1938 38.2767 26.1904 38.31C26.1871 38.3417 26.1688 38.3642 26.1354 38.3775C26.1054 38.3892 26.0788 38.3867 26.0554 38.37C26.0321 38.3533 26.0079 38.325 25.9829 38.285C25.8879 38.1033 25.7746 37.975 25.6429 37.9C25.5113 37.8233 25.3754 37.785 25.2354 37.785ZM27.5391 37.7475V39.65C27.5391 39.6967 27.5474 39.7317 27.5641 39.755C27.5807 39.7767 27.6057 39.7917 27.6391 39.8L27.7516 39.825C27.7816 39.835 27.8032 39.8475 27.8166 39.8625C27.8316 39.8758 27.8391 39.8933 27.8391 39.915C27.8391 39.9417 27.8299 39.9625 27.8116 39.9775C27.7932 39.9925 27.7641 40 27.7241 40H26.8166C26.7782 40 26.7499 39.9925 26.7316 39.9775C26.7132 39.9625 26.7041 39.9417 26.7041 39.915C26.7041 39.895 26.7107 39.8775 26.7241 39.8625C26.7391 39.8475 26.7616 39.8358 26.7916 39.8275L26.9091 39.8C26.9424 39.7917 26.9674 39.7767 26.9841 39.755C27.0007 39.7317 27.0091 39.6975 27.0091 39.6525V38.105C27.0091 38.0667 27.0024 38.0392 26.9891 38.0225C26.9774 38.0058 26.9566 37.9958 26.9266 37.9925L26.7591 37.985C26.7291 37.98 26.7074 37.9717 26.6941 37.96C26.6824 37.9467 26.6766 37.9308 26.6766 37.9125C26.6766 37.8908 26.6832 37.8725 26.6966 37.8575C26.7116 37.8425 26.7382 37.8283 26.7766 37.815L27.1891 37.67C27.2441 37.65 27.2874 37.6358 27.3191 37.6275C27.3524 37.6192 27.3807 37.615 27.4041 37.615C27.4491 37.615 27.4824 37.6267 27.5041 37.65C27.5274 37.6733 27.5391 37.7058 27.5391 37.7475ZM27.2166 37.15C27.1082 37.15 27.0199 37.12 26.9516 37.06C26.8849 37 26.8516 36.9233 26.8516 36.83C26.8516 36.735 26.8849 36.6583 26.9516 36.6C27.0199 36.5417 27.1082 36.5125 27.2166 36.5125C27.3266 36.5125 27.4149 36.5425 27.4816 36.6025C27.5499 36.6608 27.5841 36.7367 27.5841 36.83C27.5841 36.9233 27.5499 37 27.4816 37.06C27.4149 37.12 27.3266 37.15 27.2166 37.15ZM29.0527 37.7475V39.65C29.0527 39.6967 29.0611 39.7317 29.0777 39.755C29.0944 39.7767 29.1194 39.7917 29.1527 39.8L29.2627 39.8275C29.3161 39.8442 29.3427 39.8725 29.3427 39.9125C29.3427 39.9708 29.3036 40 29.2252 40H28.3302C28.2919 40 28.2636 39.9925 28.2452 39.9775C28.2269 39.9625 28.2177 39.9417 28.2177 39.915C28.2177 39.895 28.2244 39.8775 28.2377 39.8625C28.2527 39.8475 28.2752 39.8358 28.3052 39.8275L28.4227 39.8C28.4561 39.7917 28.4811 39.7767 28.4977 39.755C28.5144 39.7317 28.5227 39.6975 28.5227 39.6525V38.105C28.5227 38.0667 28.5161 38.0392 28.5027 38.0225C28.4911 38.0058 28.4702 37.9958 28.4402 37.9925L28.2727 37.985C28.2427 37.98 28.2211 37.9717 28.2077 37.96C28.1961 37.9467 28.1902 37.9308 28.1902 37.9125C28.1902 37.8908 28.1969 37.8725 28.2102 37.8575C28.2252 37.8425 28.2519 37.8283 28.2902 37.815L28.7027 37.67C28.7544 37.65 28.7969 37.6358 28.8302 37.6275C28.8652 37.6192 28.8961 37.615 28.9227 37.615C28.9661 37.615 28.9986 37.6267 29.0202 37.65C29.0419 37.6733 29.0527 37.7058 29.0527 37.7475ZM28.9802 38.28L28.8802 38.18L28.9902 38.085C29.1919 37.905 29.3661 37.7783 29.5127 37.705C29.6611 37.6317 29.8044 37.595 29.9427 37.595C30.1544 37.595 30.3236 37.6617 30.4502 37.795C30.5786 37.9283 30.6427 38.1083 30.6427 38.335V39.6425C30.6427 39.6908 30.6519 39.7275 30.6702 39.7525C30.6902 39.7758 30.7177 39.7925 30.7527 39.8025L30.8552 39.8275C30.9052 39.8458 30.9302 39.8742 30.9302 39.9125C30.9302 39.9708 30.8927 40 30.8177 40H29.9327C29.8544 40 29.8152 39.9708 29.8152 39.9125C29.8152 39.8725 29.8419 39.8442 29.8952 39.8275L30.0102 39.8C30.0469 39.7917 30.0727 39.775 30.0877 39.75C30.1044 39.725 30.1127 39.6892 30.1127 39.6425V38.4175C30.1127 38.2508 30.0719 38.1258 29.9902 38.0425C29.9102 37.9592 29.8019 37.9175 29.6652 37.9175C29.5819 37.9175 29.4927 37.9392 29.3977 37.9825C29.3027 38.0258 29.1994 38.0942 29.0877 38.1875L28.9802 38.28ZM30.5702 38.28L30.4727 38.18L30.5802 38.085C30.7819 37.905 30.9569 37.7783 31.1052 37.705C31.2536 37.6317 31.3961 37.595 31.5327 37.595C31.7444 37.595 31.9136 37.6617 32.0402 37.795C32.1686 37.9283 32.2327 38.1083 32.2327 38.335V39.6425C32.2327 39.6908 32.2419 39.7275 32.2602 39.7525C32.2802 39.7758 32.3077 39.7925 32.3427 39.8025L32.4477 39.8275C32.4777 39.8358 32.4994 39.8475 32.5127 39.8625C32.5277 39.8775 32.5352 39.895 32.5352 39.915C32.5352 39.9417 32.5261 39.9625 32.5077 39.9775C32.4894 39.9925 32.4602 40 32.4202 40H31.5252C31.4469 40 31.4077 39.9708 31.4077 39.9125C31.4077 39.8725 31.4336 39.8442 31.4852 39.8275L31.6002 39.8C31.6369 39.7917 31.6636 39.775 31.6802 39.75C31.6969 39.725 31.7052 39.6892 31.7052 39.6425V38.4175C31.7052 38.2508 31.6644 38.1258 31.5827 38.0425C31.5027 37.9592 31.3944 37.9175 31.2577 37.9175C31.1727 37.9175 31.0827 37.9392 30.9877 37.9825C30.8927 38.0258 30.7902 38.0942 30.6802 38.1875L30.5702 38.28ZM33.6899 37.7475V38.0525L33.7099 38.095V40.815C33.7099 40.8617 33.7182 40.8967 33.7349 40.92C33.7515 40.9433 33.7765 40.9583 33.8099 40.965L33.9799 40.99C34.0099 40.9983 34.0324 41.01 34.0474 41.025C34.0624 41.04 34.0699 41.0583 34.0699 41.08C34.0699 41.1067 34.0599 41.1275 34.0399 41.1425C34.0215 41.1575 33.9924 41.165 33.9524 41.165H32.9874C32.949 41.165 32.9207 41.1575 32.9024 41.1425C32.884 41.1275 32.8749 41.1067 32.8749 41.08C32.8749 41.06 32.8815 41.0425 32.8949 41.0275C32.9099 41.0125 32.9324 41.0008 32.9624 40.9925L33.0799 40.965C33.1132 40.9567 33.1382 40.9408 33.1549 40.9175C33.1715 40.8958 33.1799 40.8625 33.1799 40.8175V38.105C33.1799 38.0667 33.1732 38.0392 33.1599 38.0225C33.1482 38.0058 33.1274 37.9958 33.0974 37.9925L32.9299 37.985C32.8999 37.98 32.8782 37.9717 32.8649 37.96C32.8532 37.9467 32.8474 37.9308 32.8474 37.9125C32.8474 37.8908 32.854 37.8733 32.8674 37.86C32.8824 37.8467 32.909 37.8325 32.9474 37.8175L33.3399 37.67C33.3915 37.65 33.434 37.6358 33.4674 37.6275C33.5007 37.6192 33.5299 37.615 33.5549 37.615C33.5999 37.615 33.6332 37.6267 33.6549 37.65C33.6782 37.6733 33.6899 37.7058 33.6899 37.7475ZM33.5849 38.3475L33.5024 38.215C33.6307 38.0183 33.7799 37.8658 33.9499 37.7575C34.1215 37.6492 34.3074 37.595 34.5074 37.595C34.7057 37.595 34.8815 37.6458 35.0349 37.7475C35.1899 37.8475 35.3115 37.9867 35.3999 38.165C35.4899 38.3417 35.5349 38.5442 35.5349 38.7725C35.5349 39.0358 35.4824 39.2642 35.3774 39.4575C35.274 39.6492 35.134 39.7975 34.9574 39.9025C34.7807 40.0058 34.584 40.0575 34.3674 40.0575C34.169 40.0575 33.9915 40.0092 33.8349 39.9125C33.6782 39.8142 33.5524 39.6742 33.4574 39.4925L33.5824 39.365C33.669 39.5167 33.7724 39.6317 33.8924 39.71C34.014 39.7883 34.1432 39.8275 34.2799 39.8275C34.4132 39.8275 34.5324 39.7908 34.6374 39.7175C34.7424 39.6442 34.8249 39.5342 34.8849 39.3875C34.9465 39.2392 34.9774 39.055 34.9774 38.835C34.9774 38.6233 34.9482 38.4467 34.8899 38.305C34.8315 38.1633 34.7515 38.0567 34.6499 37.985C34.5482 37.9117 34.4315 37.875 34.2999 37.875C34.1649 37.875 34.0365 37.9142 33.9149 37.9925C33.7932 38.0708 33.6832 38.1892 33.5849 38.3475ZM36.8018 36.445V39.65C36.8018 39.6967 36.8101 39.7317 36.8268 39.755C36.8434 39.7767 36.8684 39.7917 36.9018 39.8L37.0143 39.825C37.0443 39.835 37.0659 39.8475 37.0793 39.8625C37.0943 39.8758 37.1018 39.8933 37.1018 39.915C37.1018 39.9417 37.0926 39.9625 37.0743 39.9775C37.0559 39.9925 37.0268 40 36.9868 40H36.0793C36.0409 40 36.0126 39.9925 35.9943 39.9775C35.9759 39.9625 35.9668 39.9417 35.9668 39.915C35.9668 39.895 35.9734 39.8775 35.9868 39.8625C36.0018 39.8475 36.0243 39.8358 36.0543 39.8275L36.1718 39.8C36.2051 39.7917 36.2301 39.7767 36.2468 39.755C36.2634 39.7317 36.2718 39.6975 36.2718 39.6525V36.8025C36.2718 36.7642 36.2651 36.7367 36.2518 36.72C36.2401 36.7017 36.2193 36.6908 36.1893 36.6875L36.0218 36.68C35.9918 36.6767 35.9701 36.6692 35.9568 36.6575C35.9451 36.6442 35.9393 36.6275 35.9393 36.6075C35.9393 36.5858 35.9459 36.5683 35.9593 36.555C35.9743 36.54 36.0009 36.5258 36.0393 36.5125L36.4518 36.3675C36.5068 36.3475 36.5501 36.3333 36.5818 36.325C36.6151 36.3167 36.6434 36.3125 36.6668 36.3125C36.7118 36.3125 36.7451 36.3242 36.7668 36.3475C36.7901 36.3708 36.8018 36.4033 36.8018 36.445ZM39.6801 38.535C39.6801 38.6133 39.6567 38.6733 39.6101 38.715C39.5651 38.755 39.4984 38.775 39.4101 38.775H37.8126V38.6125H39.0151C39.0984 38.6125 39.1401 38.5758 39.1401 38.5025C39.1401 38.2808 39.0917 38.1075 38.9951 37.9825C38.8984 37.8575 38.7692 37.795 38.6076 37.795C38.4809 37.795 38.3692 37.8317 38.2726 37.905C38.1759 37.9767 38.1001 38.0792 38.0451 38.2125C37.9901 38.3442 37.9626 38.4992 37.9626 38.6775C37.9626 39.0092 38.0417 39.2608 38.2001 39.4325C38.3601 39.6025 38.5692 39.6875 38.8276 39.6875C38.9926 39.6875 39.1359 39.6508 39.2576 39.5775C39.3792 39.5042 39.4651 39.4067 39.5151 39.285C39.5367 39.2567 39.5542 39.2375 39.5676 39.2275C39.5826 39.2158 39.5992 39.21 39.6176 39.21C39.6409 39.21 39.6576 39.22 39.6676 39.24C39.6776 39.26 39.6826 39.2833 39.6826 39.31C39.6726 39.4467 39.6226 39.5717 39.5326 39.685C39.4426 39.7983 39.3226 39.8892 39.1726 39.9575C39.0242 40.0242 38.8551 40.0575 38.6651 40.0575C38.4301 40.0575 38.2226 40.0083 38.0426 39.91C37.8642 39.8117 37.7251 39.6733 37.6251 39.495C37.5251 39.3167 37.4751 39.1075 37.4751 38.8675C37.4751 38.6242 37.5234 38.4067 37.6201 38.215C37.7167 38.0233 37.8551 37.8725 38.0351 37.7625C38.2151 37.6508 38.4292 37.595 38.6776 37.595C38.8826 37.595 39.0601 37.635 39.2101 37.715C39.3601 37.795 39.4759 37.9058 39.5576 38.0475C39.6392 38.1875 39.6801 38.35 39.6801 38.535ZM43.4252 38.535C43.4252 38.6133 43.4019 38.6733 43.3552 38.715C43.3102 38.755 43.2435 38.775 43.1552 38.775H41.5577V38.6125H42.7602C42.8435 38.6125 42.8852 38.5758 42.8852 38.5025C42.8852 38.2808 42.8369 38.1075 42.7402 37.9825C42.6435 37.8575 42.5144 37.795 42.3527 37.795C42.226 37.795 42.1144 37.8317 42.0177 37.905C41.921 37.9767 41.8452 38.0792 41.7902 38.2125C41.7352 38.3442 41.7077 38.4992 41.7077 38.6775C41.7077 39.0092 41.7869 39.2608 41.9452 39.4325C42.1052 39.6025 42.3144 39.6875 42.5727 39.6875C42.7377 39.6875 42.881 39.6508 43.0027 39.5775C43.1244 39.5042 43.2102 39.4067 43.2602 39.285C43.2819 39.2567 43.2994 39.2375 43.3127 39.2275C43.3277 39.2158 43.3444 39.21 43.3627 39.21C43.386 39.21 43.4027 39.22 43.4127 39.24C43.4227 39.26 43.4277 39.2833 43.4277 39.31C43.4177 39.4467 43.3677 39.5717 43.2777 39.685C43.1877 39.7983 43.0677 39.8892 42.9177 39.9575C42.7694 40.0242 42.6002 40.0575 42.4102 40.0575C42.1752 40.0575 41.9677 40.0083 41.7877 39.91C41.6094 39.8117 41.4702 39.6733 41.3702 39.495C41.2702 39.3167 41.2202 39.1075 41.2202 38.8675C41.2202 38.6242 41.2685 38.4067 41.3652 38.215C41.4619 38.0233 41.6002 37.8725 41.7802 37.7625C41.9602 37.6508 42.1744 37.595 42.4227 37.595C42.6277 37.595 42.8052 37.635 42.9552 37.715C43.1052 37.795 43.221 37.9058 43.3027 38.0475C43.3844 38.1875 43.4252 38.35 43.4252 38.535ZM43.9849 37.8575L43.8549 37.8225C43.8115 37.8108 43.7815 37.7975 43.7649 37.7825C43.7499 37.7658 43.7424 37.7475 43.7424 37.7275C43.7424 37.7008 43.7515 37.6808 43.7699 37.6675C43.7882 37.6542 43.8132 37.6475 43.8449 37.6475H44.0049C44.0499 37.6475 44.0857 37.6408 44.1124 37.6275C44.1407 37.6125 44.1649 37.5858 44.1849 37.5475L44.3824 37.185C44.4074 37.145 44.4324 37.1167 44.4574 37.1C44.4824 37.0817 44.509 37.0725 44.5374 37.0725C44.5657 37.0725 44.5882 37.0817 44.6049 37.1C44.6215 37.1183 44.6299 37.1442 44.6299 37.1775V39.38C44.6299 39.495 44.6532 39.5825 44.6999 39.6425C44.7482 39.7025 44.814 39.7325 44.8974 39.7325C44.959 39.7325 45.0065 39.7225 45.0399 39.7025C45.0749 39.6808 45.1015 39.6567 45.1199 39.63C45.1399 39.6017 45.1582 39.5775 45.1749 39.5575C45.1932 39.5375 45.2157 39.5275 45.2424 39.5275C45.264 39.5275 45.2799 39.5342 45.2899 39.5475C45.3015 39.5608 45.3074 39.5833 45.3074 39.615C45.3074 39.6867 45.2815 39.755 45.2299 39.82C45.1782 39.885 45.1065 39.9383 45.0149 39.98C44.9249 40.0217 44.8207 40.0425 44.7024 40.0425C44.519 40.0425 44.3724 39.995 44.2624 39.9C44.154 39.8033 44.0999 39.6583 44.0999 39.465V38.0025C44.0999 37.9608 44.0915 37.9292 44.0749 37.9075C44.0582 37.8858 44.0282 37.8692 43.9849 37.8575ZM44.3924 37.8475V37.6475H45.1799C45.2149 37.6475 45.2415 37.6542 45.2599 37.6675C45.2782 37.6792 45.2874 37.6983 45.2874 37.725C45.2874 37.76 45.269 37.7892 45.2324 37.8125C45.1974 37.8358 45.1415 37.8475 45.0649 37.8475H44.3924ZM47.5614 38.6925C47.5614 38.4558 47.5964 38.2558 47.6664 38.0925C47.7364 37.9292 47.8272 37.8058 47.9389 37.7225C48.0522 37.6375 48.1722 37.595 48.2989 37.595C48.4505 37.595 48.568 37.6367 48.6514 37.72C48.7364 37.8033 48.7789 37.9192 48.7789 38.0675C48.7789 38.1825 48.7539 38.27 48.7039 38.33C48.6555 38.3883 48.5922 38.4175 48.5139 38.4175C48.4355 38.4175 48.3747 38.3958 48.3314 38.3525C48.288 38.3075 48.2664 38.2458 48.2664 38.1675V38.0825C48.2647 38.0258 48.2505 37.9842 48.2239 37.9575C48.1989 37.9292 48.1555 37.915 48.0939 37.915C48.0222 37.915 47.9522 37.9442 47.8839 38.0025C47.8155 38.0592 47.7597 38.145 47.7164 38.26C47.673 38.3733 47.6514 38.5175 47.6514 38.6925H47.5614ZM47.6214 37.7475L47.6514 38.3275V39.65C47.6514 39.6933 47.6605 39.7258 47.6789 39.7475C47.6989 39.7692 47.7322 39.7833 47.7789 39.79L48.0039 39.8225C48.0389 39.8275 48.0647 39.8375 48.0814 39.8525C48.0997 39.8675 48.1089 39.8883 48.1089 39.915C48.1089 39.9417 48.0989 39.9625 48.0789 39.9775C48.0589 39.9925 48.0297 40 47.9914 40H46.9289C46.8905 40 46.8622 39.9925 46.8439 39.9775C46.8255 39.9625 46.8164 39.9417 46.8164 39.915C46.8164 39.895 46.823 39.8775 46.8364 39.8625C46.8514 39.8475 46.8739 39.8358 46.9039 39.8275L47.0214 39.8C47.0547 39.7917 47.0797 39.7767 47.0964 39.755C47.113 39.7317 47.1214 39.6975 47.1214 39.6525V38.11C47.1214 38.0717 47.1147 38.0442 47.1014 38.0275C47.0897 38.0092 47.0689 37.9983 47.0389 37.995L46.8714 37.9875C46.8414 37.9842 46.8197 37.9767 46.8064 37.965C46.7947 37.9517 46.7889 37.935 46.7889 37.915C46.7889 37.8933 46.7964 37.8758 46.8114 37.8625C46.8264 37.8475 46.8522 37.8333 46.8889 37.82L47.2939 37.675C47.3605 37.6517 47.4097 37.6358 47.4414 37.6275C47.4747 37.6192 47.5005 37.615 47.5189 37.615C47.5505 37.615 47.5747 37.625 47.5914 37.645C47.608 37.665 47.618 37.6992 47.6214 37.7475ZM50.6094 39.69V39.64L50.5769 39.625V38.1975C50.5769 38.0542 50.5402 37.9442 50.4669 37.8675C50.3952 37.7908 50.2927 37.7525 50.1594 37.7525C50.0327 37.7525 49.9377 37.7783 49.8744 37.83C49.811 37.8817 49.7794 37.9442 49.7794 38.0175V38.215C49.7794 38.295 49.7527 38.3567 49.6994 38.4C49.6477 38.4433 49.5752 38.465 49.4819 38.465C49.4002 38.465 49.3377 38.4442 49.2944 38.4025C49.251 38.3592 49.2294 38.3025 49.2294 38.2325C49.2294 38.1292 49.2694 38.0292 49.3494 37.9325C49.431 37.8358 49.5485 37.7558 49.7019 37.6925C49.8552 37.6292 50.041 37.5975 50.2594 37.5975C50.5444 37.5975 50.756 37.6592 50.8944 37.7825C51.0327 37.9042 51.1019 38.0675 51.1019 38.2725V39.625C51.1019 39.6783 51.1119 39.7175 51.1319 39.7425C51.1535 39.7675 51.1827 39.78 51.2194 39.78C51.261 39.78 51.2902 39.7708 51.3069 39.7525C51.3252 39.7325 51.341 39.7133 51.3544 39.695C51.3627 39.685 51.371 39.6767 51.3794 39.67C51.3894 39.6617 51.401 39.6575 51.4144 39.6575C51.4327 39.6575 51.446 39.6642 51.4544 39.6775C51.4627 39.6892 51.4669 39.7058 51.4669 39.7275C51.4669 39.7758 51.4502 39.8258 51.4169 39.8775C51.3835 39.9275 51.3352 39.97 51.2719 40.005C51.2085 40.04 51.1294 40.0575 51.0344 40.0575C50.9027 40.0575 50.7985 40.0267 50.7219 39.965C50.6469 39.9017 50.6094 39.81 50.6094 39.69ZM49.1169 39.48C49.1169 39.2817 49.2052 39.1192 49.3819 38.9925C49.5602 38.8658 49.806 38.8025 50.1194 38.8025C50.2327 38.8025 50.3369 38.8133 50.4319 38.835C50.5269 38.855 50.611 38.8817 50.6844 38.915L50.6444 39.0525C50.5744 39.0242 50.5027 39.0008 50.4294 38.9825C50.3577 38.9625 50.2785 38.9525 50.1919 38.9525C50.0269 38.9525 49.8977 38.9917 49.8044 39.07C49.711 39.1483 49.6644 39.2558 49.6644 39.3925C49.6644 39.5275 49.7019 39.6308 49.7769 39.7025C49.8535 39.7725 49.951 39.8075 50.0694 39.8075C50.181 39.8075 50.2885 39.7825 50.3919 39.7325C50.4952 39.6808 50.5844 39.6083 50.6594 39.515L50.7119 39.6325C50.6135 39.7675 50.486 39.8725 50.3294 39.9475C50.1744 40.0208 50.0094 40.0575 49.8344 40.0575C49.6227 40.0575 49.4502 40.0058 49.3169 39.9025C49.1835 39.7975 49.1169 39.6567 49.1169 39.48ZM52.5815 37.7475V38.0525L52.6015 38.095V40.815C52.6015 40.8617 52.6098 40.8967 52.6265 40.92C52.6432 40.9433 52.6682 40.9583 52.7015 40.965L52.8715 40.99C52.9015 40.9983 52.924 41.01 52.939 41.025C52.954 41.04 52.9615 41.0583 52.9615 41.08C52.9615 41.1067 52.9515 41.1275 52.9315 41.1425C52.9132 41.1575 52.884 41.165 52.844 41.165H51.879C51.8407 41.165 51.8123 41.1575 51.794 41.1425C51.7757 41.1275 51.7665 41.1067 51.7665 41.08C51.7665 41.06 51.7732 41.0425 51.7865 41.0275C51.8015 41.0125 51.824 41.0008 51.854 40.9925L51.9715 40.965C52.0048 40.9567 52.0298 40.9408 52.0465 40.9175C52.0632 40.8958 52.0715 40.8625 52.0715 40.8175V38.105C52.0715 38.0667 52.0648 38.0392 52.0515 38.0225C52.0398 38.0058 52.019 37.9958 51.989 37.9925L51.8215 37.985C51.7915 37.98 51.7698 37.9717 51.7565 37.96C51.7448 37.9467 51.739 37.9308 51.739 37.9125C51.739 37.8908 51.7457 37.8733 51.759 37.86C51.774 37.8467 51.8007 37.8325 51.839 37.8175L52.2315 37.67C52.2832 37.65 52.3257 37.6358 52.359 37.6275C52.3923 37.6192 52.4215 37.615 52.4465 37.615C52.4915 37.615 52.5248 37.6267 52.5465 37.65C52.5698 37.6733 52.5815 37.7058 52.5815 37.7475ZM52.4765 38.3475L52.394 38.215C52.5223 38.0183 52.6715 37.8658 52.8415 37.7575C53.0132 37.6492 53.199 37.595 53.399 37.595C53.5973 37.595 53.7732 37.6458 53.9265 37.7475C54.0815 37.8475 54.2032 37.9867 54.2915 38.165C54.3815 38.3417 54.4265 38.5442 54.4265 38.7725C54.4265 39.0358 54.374 39.2642 54.269 39.4575C54.1657 39.6492 54.0257 39.7975 53.849 39.9025C53.6723 40.0058 53.4757 40.0575 53.259 40.0575C53.0607 40.0575 52.8832 40.0092 52.7265 39.9125C52.5698 39.8142 52.444 39.6742 52.349 39.4925L52.474 39.365C52.5607 39.5167 52.664 39.6317 52.784 39.71C52.9057 39.7883 53.0348 39.8275 53.1715 39.8275C53.3048 39.8275 53.424 39.7908 53.529 39.7175C53.634 39.6442 53.7165 39.5342 53.7765 39.3875C53.8382 39.2392 53.869 39.055 53.869 38.835C53.869 38.6233 53.8398 38.4467 53.7815 38.305C53.7232 38.1633 53.6432 38.0567 53.5415 37.985C53.4398 37.9117 53.3232 37.875 53.1915 37.875C53.0565 37.875 52.9282 37.9142 52.8065 37.9925C52.6848 38.0708 52.5748 38.1892 52.4765 38.3475ZM55.6934 37.7475V39.65C55.6934 39.6967 55.7017 39.7317 55.7184 39.755C55.735 39.7767 55.76 39.7917 55.7934 39.8L55.9059 39.825C55.9359 39.835 55.9575 39.8475 55.9709 39.8625C55.9859 39.8758 55.9934 39.8933 55.9934 39.915C55.9934 39.9417 55.9842 39.9625 55.9659 39.9775C55.9475 39.9925 55.9184 40 55.8784 40H54.9709C54.9325 40 54.9042 39.9925 54.8859 39.9775C54.8675 39.9625 54.8584 39.9417 54.8584 39.915C54.8584 39.895 54.865 39.8775 54.8784 39.8625C54.8934 39.8475 54.9159 39.8358 54.9459 39.8275L55.0634 39.8C55.0967 39.7917 55.1217 39.7767 55.1384 39.755C55.155 39.7317 55.1634 39.6975 55.1634 39.6525V38.105C55.1634 38.0667 55.1567 38.0392 55.1434 38.0225C55.1317 38.0058 55.1109 37.9958 55.0809 37.9925L54.9134 37.985C54.8834 37.98 54.8617 37.9717 54.8484 37.96C54.8367 37.9467 54.8309 37.9308 54.8309 37.9125C54.8309 37.8908 54.8375 37.8725 54.8509 37.8575C54.8659 37.8425 54.8925 37.8283 54.9309 37.815L55.3434 37.67C55.3984 37.65 55.4417 37.6358 55.4734 37.6275C55.5067 37.6192 55.535 37.615 55.5584 37.615C55.6034 37.615 55.6367 37.6267 55.6584 37.65C55.6817 37.6733 55.6934 37.7058 55.6934 37.7475ZM55.3709 37.15C55.2625 37.15 55.1742 37.12 55.1059 37.06C55.0392 37 55.0059 36.9233 55.0059 36.83C55.0059 36.735 55.0392 36.6583 55.1059 36.6C55.1742 36.5417 55.2625 36.5125 55.3709 36.5125C55.4809 36.5125 55.5692 36.5425 55.6359 36.6025C55.7042 36.6608 55.7384 36.7367 55.7384 36.83C55.7384 36.9233 55.7042 37 55.6359 37.06C55.5692 37.12 55.4809 37.15 55.3709 37.15ZM58.192 39.59L58.177 39.5725V36.8025C58.177 36.7642 58.1704 36.7367 58.157 36.72C58.1454 36.7017 58.1245 36.6908 58.0945 36.6875L57.9245 36.68C57.8962 36.6767 57.8754 36.6692 57.862 36.6575C57.8504 36.6442 57.8445 36.6275 57.8445 36.6075C57.8445 36.5858 57.8512 36.5683 57.8645 36.555C57.8795 36.54 57.9062 36.5258 57.9445 36.5125L58.3545 36.3675C58.4079 36.3475 58.4512 36.3333 58.4845 36.325C58.5179 36.3167 58.5487 36.3125 58.577 36.3125C58.6187 36.3125 58.6504 36.3242 58.672 36.3475C58.6937 36.3708 58.7045 36.4033 58.7045 36.445V39.65C58.7045 39.6967 58.7129 39.7317 58.7295 39.755C58.7479 39.7767 58.7737 39.7917 58.807 39.8L58.917 39.825C58.9487 39.835 58.9712 39.8475 58.9845 39.8625C58.9995 39.8758 59.007 39.8933 59.007 39.915C59.007 39.9417 58.997 39.9625 58.977 39.9775C58.9587 39.9925 58.9304 40 58.892 40H58.4445C58.3679 40 58.3062 39.9783 58.2595 39.935C58.2145 39.89 58.192 39.8267 58.192 39.745V39.59ZM56.352 38.88C56.352 38.6167 56.4037 38.3892 56.507 38.1975C56.612 38.0058 56.752 37.8575 56.927 37.7525C57.1037 37.6475 57.3004 37.595 57.517 37.595C57.717 37.595 57.8945 37.6442 58.0495 37.7425C58.2062 37.8408 58.332 37.98 58.427 38.16L58.302 38.29C58.217 38.1383 58.1137 38.0233 57.992 37.945C57.872 37.8667 57.7429 37.8275 57.6045 37.8275C57.4729 37.8275 57.3537 37.8642 57.247 37.9375C57.142 38.0092 57.0587 38.1183 56.997 38.265C56.937 38.4117 56.907 38.5967 56.907 38.82C56.907 39.03 56.9362 39.2067 56.9945 39.35C57.0545 39.4917 57.1354 39.5983 57.237 39.67C57.3387 39.7417 57.4545 39.7775 57.5845 39.7775C57.7212 39.7775 57.8495 39.7383 57.9695 39.66C58.0912 39.5817 58.202 39.4642 58.302 39.3075L58.3845 39.44C58.2562 39.635 58.1062 39.7867 57.9345 39.895C57.7645 40.0033 57.5787 40.0575 57.377 40.0575C57.1804 40.0575 57.0045 40.0075 56.8495 39.9075C56.6945 39.8058 56.5729 39.6667 56.4845 39.49C56.3962 39.3133 56.352 39.11 56.352 38.88ZM61.5941 38.535C61.5941 38.6133 61.5708 38.6733 61.5241 38.715C61.4791 38.755 61.4125 38.775 61.3241 38.775H59.7266V38.6125H60.9291C61.0125 38.6125 61.0541 38.5758 61.0541 38.5025C61.0541 38.2808 61.0058 38.1075 60.9091 37.9825C60.8125 37.8575 60.6833 37.795 60.5216 37.795C60.395 37.795 60.2833 37.8317 60.1866 37.905C60.09 37.9767 60.0141 38.0792 59.9591 38.2125C59.9041 38.3442 59.8766 38.4992 59.8766 38.6775C59.8766 39.0092 59.9558 39.2608 60.1141 39.4325C60.2741 39.6025 60.4833 39.6875 60.7416 39.6875C60.9066 39.6875 61.05 39.6508 61.1716 39.5775C61.2933 39.5042 61.3791 39.4067 61.4291 39.285C61.4508 39.2567 61.4683 39.2375 61.4816 39.2275C61.4966 39.2158 61.5133 39.21 61.5316 39.21C61.555 39.21 61.5716 39.22 61.5816 39.24C61.5916 39.26 61.5966 39.2833 61.5966 39.31C61.5866 39.4467 61.5366 39.5717 61.4466 39.685C61.3566 39.7983 61.2366 39.8892 61.0866 39.9575C60.9383 40.0242 60.7691 40.0575 60.5791 40.0575C60.3441 40.0575 60.1366 40.0083 59.9566 39.91C59.7783 39.8117 59.6391 39.6733 59.5391 39.495C59.4391 39.3167 59.3891 39.1075 59.3891 38.8675C59.3891 38.6242 59.4375 38.4067 59.5341 38.215C59.6308 38.0233 59.7691 37.8725 59.9491 37.7625C60.1291 37.6508 60.3433 37.595 60.5916 37.595C60.7966 37.595 60.9741 37.635 61.1241 37.715C61.2741 37.795 61.39 37.9058 61.4716 38.0475C61.5533 38.1875 61.5941 38.35 61.5941 38.535Z" fill="black"/>
</svg>
