<svg width="71" height="42" viewBox="0 0 71 42" fill="none" xmlns="http://www.w3.org/2000/svg">
<path d="M70.5 33.9525C62.8358 33.2477 29.1131 34.3048 6.12042 38.8857V41C48.2226 33.6706 66.4124 33.7731 70.5 33.9525Z" fill="black" stroke="black" stroke-width="0.2"/>
<path d="M23.5075 14.4763C23.5608 14.5763 23.5908 14.6663 23.5975 14.7463C23.6108 14.8263 23.6175 14.943 23.6175 15.0963V20.6463C23.6175 21.1063 23.4908 21.3763 23.2375 21.4563C23.1108 21.4963 22.9508 21.5163 22.7575 21.5163C22.5642 21.5163 22.4108 21.4997 22.2975 21.4663C22.1842 21.433 22.0975 21.393 22.0375 21.3463C21.9775 21.2997 21.9308 21.233 21.8975 21.1463C21.8642 21.033 21.8475 20.8597 21.8475 20.6263V17.2763C21.6808 17.483 21.4375 17.813 21.1175 18.2663C20.7975 18.713 20.5942 18.993 20.5075 19.1063C20.4208 19.2197 20.3608 19.2997 20.3275 19.3463C20.2942 19.3863 20.2108 19.4463 20.0775 19.5263C19.9508 19.5997 19.8108 19.6363 19.6575 19.6363C19.5108 19.6363 19.3742 19.603 19.2475 19.5363C19.1275 19.463 19.0408 19.393 18.9875 19.3263L18.9075 19.2163C18.7742 19.0497 18.5108 18.6963 18.1175 18.1563C17.7242 17.6097 17.5108 17.3163 17.4775 17.2763V20.6463C17.4775 20.7997 17.4708 20.9163 17.4575 20.9963C17.4508 21.0697 17.4208 21.153 17.3675 21.2463C17.2675 21.4263 17.0075 21.5163 16.5875 21.5163C16.1808 21.5163 15.9275 21.4263 15.8275 21.2463C15.7742 21.153 15.7408 21.0663 15.7275 20.9863C15.7208 20.9063 15.7175 20.7863 15.7175 20.6263V15.0763C15.7175 14.923 15.7208 14.8097 15.7275 14.7363C15.7408 14.6563 15.7742 14.5663 15.8275 14.4663C15.9275 14.293 16.1875 14.2063 16.6075 14.2063C16.7875 14.2063 16.9408 14.2297 17.0675 14.2763C17.2008 14.3163 17.2875 14.3597 17.3275 14.4063L17.3875 14.4663L19.6575 17.4463C20.7908 15.9463 21.5475 14.9563 21.9275 14.4763C22.0408 14.2963 22.3075 14.2063 22.7275 14.2063C23.1542 14.2063 23.4142 14.2963 23.5075 14.4763ZM29.4987 18.2663C29.4987 18.673 29.3953 18.9763 29.1887 19.1763C28.9887 19.3697 28.7653 19.4663 28.5187 19.4663H26.1487C26.1487 19.653 26.2587 19.8097 26.4787 19.9363C26.6987 20.063 26.9187 20.1263 27.1387 20.1263C27.5253 20.1263 27.8287 20.0863 28.0487 20.0063L28.1587 19.9663C28.3187 19.893 28.452 19.8563 28.5587 19.8563C28.772 19.8563 28.9553 20.0063 29.1087 20.3063C29.1953 20.4863 29.2387 20.6397 29.2387 20.7663C29.2387 21.3597 28.5287 21.6563 27.1087 21.6563C26.6153 21.6563 26.1753 21.573 25.7887 21.4063C25.4087 21.233 25.112 21.0063 24.8987 20.7263C24.4787 20.1863 24.2687 19.583 24.2687 18.9163C24.2687 18.0763 24.5387 17.4063 25.0787 16.9063C25.6253 16.3997 26.3053 16.1463 27.1187 16.1463C28.0453 16.1463 28.7253 16.473 29.1587 17.1263C29.3853 17.473 29.4987 17.853 29.4987 18.2663ZM27.3887 18.5563C27.642 18.5563 27.7687 18.4497 27.7687 18.2363C27.7687 18.083 27.7087 17.9597 27.5887 17.8663C27.4753 17.773 27.3087 17.7263 27.0887 17.7263C26.8753 17.7263 26.662 17.8163 26.4487 17.9963C26.2353 18.1697 26.1287 18.3563 26.1287 18.5563H27.3887ZM33.4911 20.8663C33.2378 21.1997 32.8344 21.3663 32.2811 21.3663C31.7278 21.3663 31.2078 21.113 30.7211 20.6063C30.2411 20.093 30.0011 19.4963 30.0011 18.8163C30.0011 18.1363 30.2444 17.5397 30.7311 17.0263C31.2178 16.513 31.7511 16.2563 32.3311 16.2563C32.5578 16.2563 32.7644 16.2997 32.9511 16.3863C33.1378 16.4663 33.2644 16.543 33.3311 16.6163C33.4044 16.683 33.4611 16.7463 33.5011 16.8063C33.5211 16.6197 33.5878 16.4797 33.7011 16.3863C33.8211 16.2863 34.0111 16.2363 34.2711 16.2363C34.5311 16.2363 34.7211 16.2563 34.8411 16.2963C34.9611 16.3363 35.0444 16.4063 35.0911 16.5063C35.1444 16.5997 35.1744 16.683 35.1811 16.7563C35.1944 16.8297 35.2011 16.943 35.2011 17.0963V21.2363C35.2011 22.003 34.9344 22.6197 34.4011 23.0863C33.8678 23.5597 33.2678 23.7963 32.6011 23.7963C32.0944 23.7963 31.6111 23.673 31.1511 23.4263C30.6911 23.1797 30.4611 22.9563 30.4611 22.7563C30.4611 22.4963 30.5611 22.2663 30.7611 22.0663C30.8878 21.9263 30.9844 21.8297 31.0511 21.7763C31.1244 21.723 31.2078 21.6963 31.3011 21.6963C31.3944 21.6963 31.4911 21.7363 31.5911 21.8163C31.9111 22.063 32.2578 22.1863 32.6311 22.1863C32.8844 22.1863 33.0911 22.0863 33.2511 21.8863C33.4111 21.6863 33.4911 21.4463 33.4911 21.1663V20.8663ZM31.7111 18.8263C31.7111 19.0397 31.7944 19.233 31.9611 19.4063C32.1344 19.5797 32.3411 19.6663 32.5811 19.6663C32.8278 19.6663 33.0311 19.5797 33.1911 19.4063C33.3511 19.2263 33.4311 19.033 33.4311 18.8263C33.4311 18.613 33.3544 18.4163 33.2011 18.2363C33.0478 18.0497 32.8411 17.9563 32.5811 17.9563C32.3211 17.9563 32.1111 18.0463 31.9511 18.2263C31.7911 18.4063 31.7111 18.6063 31.7111 18.8263ZM39.4207 16.8163C39.4607 16.443 39.724 16.2563 40.2107 16.2563C40.4707 16.2563 40.664 16.2763 40.7907 16.3163C40.9174 16.3563 41.004 16.4263 41.0507 16.5263C41.104 16.6263 41.134 16.7163 41.1407 16.7963C41.154 16.8697 41.1607 16.983 41.1607 17.1363V20.6363C41.1607 20.7897 41.154 20.9063 41.1407 20.9863C41.134 21.0597 41.1074 21.1463 41.0607 21.2463C40.9674 21.4197 40.7374 21.5063 40.3707 21.5063C40.0107 21.5063 39.7674 21.463 39.6407 21.3763C39.5207 21.283 39.4507 21.1497 39.4307 20.9763C39.184 21.3297 38.7707 21.5063 38.1907 21.5063C37.6174 21.5063 37.084 21.243 36.5907 20.7163C36.0974 20.1897 35.8507 19.5797 35.8507 18.8863C35.8507 18.1863 36.0974 17.5763 36.5907 17.0563C37.0907 16.5297 37.6374 16.2663 38.2307 16.2663C38.4574 16.2663 38.664 16.3063 38.8507 16.3863C39.0374 16.4663 39.1674 16.543 39.2407 16.6163C39.314 16.683 39.374 16.7497 39.4207 16.8163ZM37.6007 18.8963C37.6007 19.1163 37.6874 19.3163 37.8607 19.4963C38.034 19.6697 38.244 19.7563 38.4907 19.7563C38.7374 19.7563 38.9407 19.6663 39.1007 19.4863C39.2674 19.3063 39.3507 19.1097 39.3507 18.8963C39.3507 18.6763 39.2707 18.473 39.1107 18.2863C38.9574 18.0997 38.7474 18.0063 38.4807 18.0063C38.2207 18.0063 38.0074 18.0997 37.8407 18.2863C37.6807 18.473 37.6007 18.6763 37.6007 18.8963ZM44.597 20.4963C44.4237 20.283 44.337 20.093 44.337 19.9263C44.337 19.753 44.4804 19.5263 44.767 19.2463C44.9337 19.0863 45.1104 19.0063 45.297 19.0063C45.4837 19.0063 45.7437 19.173 46.077 19.5063C46.1704 19.6197 46.3037 19.7297 46.477 19.8363C46.6504 19.9363 46.8104 19.9863 46.957 19.9863C47.577 19.9863 47.887 19.733 47.887 19.2263C47.887 19.073 47.8004 18.9463 47.627 18.8463C47.4604 18.7397 47.2504 18.663 46.997 18.6163C46.7437 18.5697 46.4704 18.4963 46.177 18.3963C45.8837 18.2897 45.6104 18.1663 45.357 18.0263C45.1037 17.8863 44.8904 17.6663 44.717 17.3663C44.5504 17.0597 44.467 16.693 44.467 16.2663C44.467 15.6797 44.6837 15.1697 45.117 14.7363C45.557 14.2963 46.1537 14.0763 46.907 14.0763C47.307 14.0763 47.6704 14.1297 47.997 14.2363C48.3304 14.3363 48.5604 14.4397 48.687 14.5463L48.937 14.7363C49.1437 14.9297 49.247 15.093 49.247 15.2263C49.247 15.3597 49.167 15.543 49.007 15.7763C48.7804 16.1097 48.547 16.2763 48.307 16.2763C48.167 16.2763 47.9937 16.2097 47.787 16.0763C47.767 16.063 47.727 16.0297 47.667 15.9763C47.6137 15.923 47.5637 15.8797 47.517 15.8463C47.377 15.7597 47.197 15.7163 46.977 15.7163C46.7637 15.7163 46.5837 15.7697 46.437 15.8763C46.297 15.9763 46.227 16.1197 46.227 16.3063C46.227 16.4863 46.3104 16.633 46.477 16.7463C46.6504 16.8597 46.8637 16.9363 47.117 16.9763C47.3704 17.0163 47.647 17.0797 47.947 17.1663C48.247 17.2463 48.5237 17.3463 48.777 17.4663C49.0304 17.5863 49.2404 17.7963 49.407 18.0963C49.5804 18.3897 49.667 18.753 49.667 19.1863C49.667 19.6197 49.5804 20.003 49.407 20.3363C49.2337 20.663 49.007 20.9163 48.727 21.0963C48.187 21.4497 47.6104 21.6263 46.997 21.6263C46.6837 21.6263 46.387 21.5897 46.107 21.5163C45.827 21.4363 45.6004 21.3397 45.427 21.2263C45.0737 21.013 44.827 20.8063 44.687 20.6063L44.597 20.4963ZM53.2371 16.2763C53.9038 16.2763 54.4571 16.5297 54.8971 17.0363C55.3438 17.543 55.5671 18.163 55.5671 18.8963V20.6563C55.5671 20.8097 55.5604 20.9263 55.5471 21.0063C55.5404 21.0797 55.5104 21.1663 55.4571 21.2663C55.3704 21.4397 55.1138 21.5263 54.6871 21.5263C54.2804 21.5263 54.0271 21.4397 53.9271 21.2663C53.8738 21.1663 53.8404 21.0763 53.8271 20.9963C53.8204 20.9163 53.8171 20.7963 53.8171 20.6363V18.8863C53.8171 18.613 53.7404 18.3997 53.5871 18.2463C53.4338 18.093 53.2371 18.0163 52.9971 18.0163C52.7638 18.0163 52.5571 18.0897 52.3771 18.2363C52.1971 18.3763 52.0938 18.5363 52.0671 18.7163V20.6563C52.0671 20.8097 52.0604 20.9263 52.0471 21.0063C52.0404 21.0797 52.0104 21.1663 51.9571 21.2663C51.8704 21.4397 51.6138 21.5263 51.1871 21.5263C50.7671 21.5263 50.5104 21.4363 50.4171 21.2563C50.3704 21.1563 50.3404 21.0697 50.3271 20.9963C50.3204 20.923 50.3171 20.8063 50.3171 20.6463V14.6663C50.3171 14.513 50.3204 14.3997 50.3271 14.3263C50.3404 14.2463 50.3704 14.1597 50.4171 14.0663C50.5104 13.8863 50.7704 13.7963 51.1971 13.7963C51.6171 13.7963 51.8704 13.8863 51.9571 14.0663C52.0104 14.1663 52.0404 14.2563 52.0471 14.3363C52.0604 14.4097 52.0671 14.523 52.0671 14.6763V16.8863C52.4004 16.4797 52.7904 16.2763 53.2371 16.2763ZM56.2218 18.8963C56.2218 18.0963 56.5018 17.4363 57.0618 16.9163C57.6218 16.3963 58.2618 16.1363 58.9818 16.1363C59.7018 16.1363 60.3385 16.3963 60.8918 16.9163C61.4451 17.4297 61.7218 18.0863 61.7218 18.8863C61.7218 19.4397 61.5785 19.933 61.2918 20.3663C61.0051 20.793 60.6551 21.1097 60.2418 21.3163C59.8351 21.5163 59.4118 21.6163 58.9718 21.6163C58.5318 21.6163 58.1051 21.5097 57.6918 21.2963C57.2785 21.0763 56.9285 20.7563 56.6418 20.3363C56.3618 19.9097 56.2218 19.4297 56.2218 18.8963ZM58.3118 19.6163C58.5251 19.7763 58.7418 19.8563 58.9618 19.8563C59.1818 19.8563 59.4018 19.773 59.6218 19.6063C59.8418 19.4397 59.9518 19.193 59.9518 18.8663C59.9518 18.5397 59.8485 18.2963 59.6418 18.1363C59.4351 17.9763 59.2118 17.8963 58.9718 17.8963C58.7318 17.8963 58.5085 17.9797 58.3018 18.1463C58.0951 18.313 57.9918 18.5597 57.9918 18.8863C57.9918 19.2063 58.0985 19.4497 58.3118 19.6163ZM62.3679 22.9563V17.1163C62.3679 16.963 62.3712 16.8497 62.3779 16.7763C62.3912 16.703 62.4212 16.6197 62.4679 16.5263C62.5612 16.3463 62.7846 16.2563 63.1379 16.2563C63.4912 16.2563 63.7279 16.303 63.8479 16.3963C63.9746 16.483 64.0479 16.613 64.0679 16.7863C64.3212 16.4397 64.7179 16.2663 65.2579 16.2663C65.8046 16.2663 66.3212 16.523 66.8079 17.0363C67.2946 17.5497 67.5379 18.1463 67.5379 18.8263C67.5379 19.5063 67.2946 20.103 66.8079 20.6163C66.3279 21.1297 65.8146 21.3863 65.2679 21.3863C64.7212 21.3863 64.3246 21.233 64.0779 20.9263V22.9463C64.0779 23.0997 64.0712 23.213 64.0579 23.2863C64.0512 23.3597 64.0212 23.443 63.9679 23.5363C63.9212 23.6363 63.8379 23.7063 63.7179 23.7463C63.5979 23.7863 63.4346 23.8063 63.2279 23.8063C63.0212 23.8063 62.8546 23.7863 62.7279 23.7463C62.6079 23.7063 62.5212 23.6397 62.4679 23.5463C62.4212 23.453 62.3912 23.3697 62.3779 23.2963C62.3712 23.223 62.3679 23.1097 62.3679 22.9563ZM64.3479 18.2463C64.1946 18.4263 64.1179 18.623 64.1179 18.8363C64.1179 19.0497 64.1946 19.2463 64.3479 19.4263C64.5079 19.5997 64.7079 19.6863 64.9479 19.6863C65.1946 19.6863 65.4012 19.5997 65.5679 19.4263C65.7412 19.253 65.8279 19.0563 65.8279 18.8363C65.8279 18.6163 65.7479 18.4197 65.5879 18.2463C65.4279 18.0663 65.2179 17.9763 64.9579 17.9763C64.7046 17.9763 64.5012 18.0663 64.3479 18.2463Z" fill="black"/>
<path d="M5.09854 25.2963L4.07664 35.1629V35.8676L0.5 34.8105L1.5219 30.2296V34.1057L2.5438 34.4581L5.09854 25.2963Z" fill="black" stroke="black" stroke-width="0.5"/>
<path d="M33.7117 8.0299L6.63139 6.62039L8.16423 6.97277L5.60949 36.5724C5.56953 36.6885 5.94933 36.8076 5.60949 36.9248C26.9253 33.9847 38.5401 33.2747 44.9136 33.1032C18.2738 33.4851 9.2933 34.8478 8.16423 35.5153L10.479 8.0299H33.7117Z" fill="black"/>
<path fill-rule="evenodd" clip-rule="evenodd" d="M5.60949 36.9248V36.5724C5.56953 36.6885 5.94933 36.8076 5.60949 36.9248ZM44.9136 33.1032C46.9427 33.0486 48.4406 33.0486 49.5511 33.0486C47.9489 33.0635 46.4036 33.0818 44.9136 33.1032Z" fill="black"/>
<path d="M6.63139 6.62039L33.7117 8.0299H10.479L8.16423 35.5153C9.2933 34.8478 18.2738 33.4851 44.9136 33.1032M6.63139 6.62039L8.16423 6.97277L5.60949 36.5724M6.63139 6.62039L3.56569 20.7154L0.5 34.8105C3.22823 35.5161 5.09854 37.2771 5.60949 36.5724M5.60949 36.9248C26.9253 33.9847 38.5401 33.2747 44.9136 33.1032M5.60949 36.9248V36.5724M5.60949 36.9248C5.94933 36.8076 5.56953 36.6885 5.60949 36.5724M44.9136 33.1032C46.9427 33.0486 48.4406 33.0486 49.5511 33.0486C47.9489 33.0635 46.4036 33.0818 44.9136 33.1032Z" stroke="black" stroke-width="0.8"/>
<ellipse cx="30.646" cy="11.2013" rx="2.0438" ry="1.40951" fill="black"/>
<ellipse cx="14.2956" cy="11.2013" rx="2.0438" ry="1.40951" fill="black"/>
<path d="M14.4778 10.4965V6.59259C14.2956 0.277622 29.2401 -1.92511 30.646 6.59259V10.4965" stroke="black" stroke-width="2"/>
<path d="M24.7063 26.9429C24.5813 26.9429 24.4821 26.9754 24.4088 27.0404C24.3371 27.1037 24.3013 27.1871 24.3013 27.2904C24.3013 27.3554 24.3163 27.4137 24.3463 27.4654C24.3763 27.5154 24.4304 27.5621 24.5088 27.6054C24.5871 27.6471 24.6988 27.6862 24.8438 27.7229C25.0754 27.7762 25.2563 27.8421 25.3863 27.9204C25.5179 27.9971 25.6104 28.0846 25.6638 28.1829C25.7171 28.2812 25.7438 28.3904 25.7438 28.5104C25.7438 28.7221 25.6671 28.8929 25.5138 29.0229C25.3621 29.1512 25.1446 29.2154 24.8613 29.2154C24.7579 29.2154 24.6721 29.2062 24.6038 29.1879C24.5371 29.1696 24.4813 29.1512 24.4363 29.1329C24.3913 29.1146 24.3513 29.1054 24.3163 29.1054C24.2829 29.1054 24.2571 29.1154 24.2388 29.1354C24.2204 29.1537 24.2029 29.1721 24.1863 29.1904C24.1696 29.2087 24.1463 29.2179 24.1163 29.2179C24.0929 29.2179 24.0746 29.2104 24.0613 29.1954C24.0479 29.1821 24.0354 29.1571 24.0238 29.1204L23.8388 28.5979C23.8238 28.5512 23.8188 28.5129 23.8238 28.4829C23.8304 28.4512 23.8496 28.4296 23.8813 28.4179C23.9129 28.4062 23.9404 28.4071 23.9638 28.4204C23.9888 28.4321 24.0104 28.4537 24.0288 28.4854C24.1021 28.6221 24.1813 28.7304 24.2663 28.8104C24.3529 28.8887 24.4438 28.9446 24.5388 28.9779C24.6354 29.0112 24.7338 29.0279 24.8338 29.0279C24.9921 29.0279 25.1104 28.9946 25.1888 28.9279C25.2688 28.8612 25.3088 28.7729 25.3088 28.6629C25.3088 28.5979 25.2921 28.5387 25.2588 28.4854C25.2254 28.4304 25.1646 28.3796 25.0763 28.3329C24.9879 28.2862 24.8621 28.2429 24.6988 28.2029C24.4954 28.1546 24.3329 28.0954 24.2113 28.0254C24.0913 27.9554 24.0046 27.8712 23.9513 27.7729C23.8996 27.6746 23.8738 27.5604 23.8738 27.4304C23.8738 27.2971 23.9071 27.1796 23.9738 27.0779C24.0404 26.9762 24.1346 26.8971 24.2563 26.8404C24.3779 26.7821 24.5204 26.7529 24.6838 26.7529C24.7888 26.7529 24.8738 26.7629 24.9388 26.7829C25.0054 26.8029 25.0596 26.8237 25.1013 26.8454C25.1446 26.8654 25.1829 26.8754 25.2163 26.8754C25.2529 26.8754 25.2813 26.8654 25.3013 26.8454C25.3213 26.8237 25.3396 26.8029 25.3563 26.7829C25.3729 26.7629 25.3954 26.7529 25.4238 26.7529C25.4438 26.7529 25.4604 26.7604 25.4738 26.7754C25.4888 26.7887 25.4996 26.8121 25.5063 26.8454L25.6488 27.3429C25.6604 27.3929 25.6646 27.4346 25.6613 27.4679C25.6579 27.4996 25.6396 27.5221 25.6063 27.5354C25.5763 27.5471 25.5496 27.5446 25.5263 27.5279C25.5029 27.5112 25.4788 27.4829 25.4538 27.4429C25.3588 27.2612 25.2454 27.1329 25.1138 27.0579C24.9821 26.9812 24.8463 26.9429 24.7063 26.9429ZM27.0099 26.9054V28.8079C27.0099 28.8546 27.0182 28.8896 27.0349 28.9129C27.0516 28.9346 27.0766 28.9496 27.1099 28.9579L27.2224 28.9829C27.2524 28.9929 27.2741 29.0054 27.2874 29.0204C27.3024 29.0337 27.3099 29.0512 27.3099 29.0729C27.3099 29.0996 27.3007 29.1204 27.2824 29.1354C27.2641 29.1504 27.2349 29.1579 27.1949 29.1579H26.2874C26.2491 29.1579 26.2207 29.1504 26.2024 29.1354C26.1841 29.1204 26.1749 29.0996 26.1749 29.0729C26.1749 29.0529 26.1816 29.0354 26.1949 29.0204C26.2099 29.0054 26.2324 28.9937 26.2624 28.9854L26.3799 28.9579C26.4132 28.9496 26.4382 28.9346 26.4549 28.9129C26.4716 28.8896 26.4799 28.8554 26.4799 28.8104V27.2629C26.4799 27.2246 26.4732 27.1971 26.4599 27.1804C26.4482 27.1637 26.4274 27.1537 26.3974 27.1504L26.2299 27.1429C26.1999 27.1379 26.1782 27.1296 26.1649 27.1179C26.1532 27.1046 26.1474 27.0887 26.1474 27.0704C26.1474 27.0487 26.1541 27.0304 26.1674 27.0154C26.1824 27.0004 26.2091 26.9862 26.2474 26.9729L26.6599 26.8279C26.7149 26.8079 26.7582 26.7937 26.7899 26.7854C26.8232 26.7771 26.8516 26.7729 26.8749 26.7729C26.9199 26.7729 26.9532 26.7846 26.9749 26.8079C26.9982 26.8312 27.0099 26.8637 27.0099 26.9054ZM26.6874 26.3079C26.5791 26.3079 26.4907 26.2779 26.4224 26.2179C26.3557 26.1579 26.3224 26.0812 26.3224 25.9879C26.3224 25.8929 26.3557 25.8162 26.4224 25.7579C26.4907 25.6996 26.5791 25.6704 26.6874 25.6704C26.7974 25.6704 26.8857 25.7004 26.9524 25.7604C27.0207 25.8187 27.0549 25.8946 27.0549 25.9879C27.0549 26.0812 27.0207 26.1579 26.9524 26.2179C26.8857 26.2779 26.7974 26.3079 26.6874 26.3079ZM28.5236 26.9054V28.8079C28.5236 28.8546 28.5319 28.8896 28.5486 28.9129C28.5652 28.9346 28.5902 28.9496 28.6236 28.9579L28.7336 28.9854C28.7869 29.0021 28.8136 29.0304 28.8136 29.0704C28.8136 29.1287 28.7744 29.1579 28.6961 29.1579H27.8011C27.7627 29.1579 27.7344 29.1504 27.7161 29.1354C27.6977 29.1204 27.6886 29.0996 27.6886 29.0729C27.6886 29.0529 27.6952 29.0354 27.7086 29.0204C27.7236 29.0054 27.7461 28.9937 27.7761 28.9854L27.8936 28.9579C27.9269 28.9496 27.9519 28.9346 27.9686 28.9129C27.9852 28.8896 27.9936 28.8554 27.9936 28.8104V27.2629C27.9936 27.2246 27.9869 27.1971 27.9736 27.1804C27.9619 27.1637 27.9411 27.1537 27.9111 27.1504L27.7436 27.1429C27.7136 27.1379 27.6919 27.1296 27.6786 27.1179C27.6669 27.1046 27.6611 27.0887 27.6611 27.0704C27.6611 27.0487 27.6677 27.0304 27.6811 27.0154C27.6961 27.0004 27.7227 26.9862 27.7611 26.9729L28.1736 26.8279C28.2252 26.8079 28.2677 26.7937 28.3011 26.7854C28.3361 26.7771 28.3669 26.7729 28.3936 26.7729C28.4369 26.7729 28.4694 26.7846 28.4911 26.8079C28.5127 26.8312 28.5236 26.8637 28.5236 26.9054ZM28.4511 27.4379L28.3511 27.3379L28.4611 27.2429C28.6627 27.0629 28.8369 26.9362 28.9836 26.8629C29.1319 26.7896 29.2752 26.7529 29.4136 26.7529C29.6252 26.7529 29.7944 26.8196 29.9211 26.9529C30.0494 27.0862 30.1136 27.2662 30.1136 27.4929V28.8004C30.1136 28.8487 30.1227 28.8854 30.1411 28.9104C30.1611 28.9337 30.1886 28.9504 30.2236 28.9604L30.3261 28.9854C30.3761 29.0037 30.4011 29.0321 30.4011 29.0704C30.4011 29.1287 30.3636 29.1579 30.2886 29.1579H29.4036C29.3252 29.1579 29.2861 29.1287 29.2861 29.0704C29.2861 29.0304 29.3127 29.0021 29.3661 28.9854L29.4811 28.9579C29.5177 28.9496 29.5436 28.9329 29.5586 28.9079C29.5752 28.8829 29.5836 28.8471 29.5836 28.8004V27.5754C29.5836 27.4087 29.5427 27.2837 29.4611 27.2004C29.3811 27.1171 29.2727 27.0754 29.1361 27.0754C29.0527 27.0754 28.9636 27.0971 28.8686 27.1404C28.7736 27.1837 28.6702 27.2521 28.5586 27.3454L28.4511 27.4379ZM30.0411 27.4379L29.9436 27.3379L30.0511 27.2429C30.2527 27.0629 30.4277 26.9362 30.5761 26.8629C30.7244 26.7896 30.8669 26.7529 31.0036 26.7529C31.2152 26.7529 31.3844 26.8196 31.5111 26.9529C31.6394 27.0862 31.7036 27.2662 31.7036 27.4929V28.8004C31.7036 28.8487 31.7127 28.8854 31.7311 28.9104C31.7511 28.9337 31.7786 28.9504 31.8136 28.9604L31.9186 28.9854C31.9486 28.9937 31.9702 29.0054 31.9836 29.0204C31.9986 29.0354 32.0061 29.0529 32.0061 29.0729C32.0061 29.0996 31.9969 29.1204 31.9786 29.1354C31.9602 29.1504 31.9311 29.1579 31.8911 29.1579H30.9961C30.9177 29.1579 30.8786 29.1287 30.8786 29.0704C30.8786 29.0304 30.9044 29.0021 30.9561 28.9854L31.0711 28.9579C31.1077 28.9496 31.1344 28.9329 31.1511 28.9079C31.1677 28.8829 31.1761 28.8471 31.1761 28.8004V27.5754C31.1761 27.4087 31.1352 27.2837 31.0536 27.2004C30.9736 27.1171 30.8652 27.0754 30.7286 27.0754C30.6436 27.0754 30.5536 27.0971 30.4586 27.1404C30.3636 27.1837 30.2611 27.2521 30.1511 27.3454L30.0411 27.4379ZM33.1607 26.9054V27.2104L33.1807 27.2529V29.9729C33.1807 30.0196 33.189 30.0546 33.2057 30.0779C33.2224 30.1012 33.2474 30.1162 33.2807 30.1229L33.4507 30.1479C33.4807 30.1562 33.5032 30.1679 33.5182 30.1829C33.5332 30.1979 33.5407 30.2162 33.5407 30.2379C33.5407 30.2646 33.5307 30.2854 33.5107 30.3004C33.4924 30.3154 33.4632 30.3229 33.4232 30.3229H32.4582C32.4199 30.3229 32.3915 30.3154 32.3732 30.3004C32.3549 30.2854 32.3457 30.2646 32.3457 30.2379C32.3457 30.2179 32.3524 30.2004 32.3657 30.1854C32.3807 30.1704 32.4032 30.1587 32.4332 30.1504L32.5507 30.1229C32.584 30.1146 32.609 30.0987 32.6257 30.0754C32.6424 30.0537 32.6507 30.0204 32.6507 29.9754V27.2629C32.6507 27.2246 32.644 27.1971 32.6307 27.1804C32.619 27.1637 32.5982 27.1537 32.5682 27.1504L32.4007 27.1429C32.3707 27.1379 32.349 27.1296 32.3357 27.1179C32.324 27.1046 32.3182 27.0887 32.3182 27.0704C32.3182 27.0487 32.3249 27.0312 32.3382 27.0179C32.3532 27.0046 32.3799 26.9904 32.4182 26.9754L32.8107 26.8279C32.8624 26.8079 32.9049 26.7937 32.9382 26.7854C32.9715 26.7771 33.0007 26.7729 33.0257 26.7729C33.0707 26.7729 33.104 26.7846 33.1257 26.8079C33.149 26.8312 33.1607 26.8637 33.1607 26.9054ZM33.0557 27.5054L32.9732 27.3729C33.1015 27.1762 33.2507 27.0237 33.4207 26.9154C33.5924 26.8071 33.7782 26.7529 33.9782 26.7529C34.1765 26.7529 34.3524 26.8037 34.5057 26.9054C34.6607 27.0054 34.7824 27.1446 34.8707 27.3229C34.9607 27.4996 35.0057 27.7021 35.0057 27.9304C35.0057 28.1937 34.9532 28.4221 34.8482 28.6154C34.7449 28.8071 34.6049 28.9554 34.4282 29.0604C34.2515 29.1637 34.0549 29.2154 33.8382 29.2154C33.6399 29.2154 33.4624 29.1671 33.3057 29.0704C33.149 28.9721 33.0232 28.8321 32.9282 28.6504L33.0532 28.5229C33.1399 28.6746 33.2432 28.7896 33.3632 28.8679C33.4849 28.9462 33.614 28.9854 33.7507 28.9854C33.884 28.9854 34.0032 28.9487 34.1082 28.8754C34.2132 28.8021 34.2957 28.6921 34.3557 28.5454C34.4174 28.3971 34.4482 28.2129 34.4482 27.9929C34.4482 27.7812 34.419 27.6046 34.3607 27.4629C34.3024 27.3212 34.2224 27.2146 34.1207 27.1429C34.019 27.0696 33.9024 27.0329 33.7707 27.0329C33.6357 27.0329 33.5074 27.0721 33.3857 27.1504C33.264 27.2287 33.154 27.3471 33.0557 27.5054ZM36.2726 25.6029V28.8079C36.2726 28.8546 36.2809 28.8896 36.2976 28.9129C36.3142 28.9346 36.3392 28.9496 36.3726 28.9579L36.4851 28.9829C36.5151 28.9929 36.5367 29.0054 36.5501 29.0204C36.5651 29.0337 36.5726 29.0512 36.5726 29.0729C36.5726 29.0996 36.5634 29.1204 36.5451 29.1354C36.5267 29.1504 36.4976 29.1579 36.4576 29.1579H35.5501C35.5117 29.1579 35.4834 29.1504 35.4651 29.1354C35.4467 29.1204 35.4376 29.0996 35.4376 29.0729C35.4376 29.0529 35.4442 29.0354 35.4576 29.0204C35.4726 29.0054 35.4951 28.9937 35.5251 28.9854L35.6426 28.9579C35.6759 28.9496 35.7009 28.9346 35.7176 28.9129C35.7342 28.8896 35.7426 28.8554 35.7426 28.8104V25.9604C35.7426 25.9221 35.7359 25.8946 35.7226 25.8779C35.7109 25.8596 35.6901 25.8487 35.6601 25.8454L35.4926 25.8379C35.4626 25.8346 35.4409 25.8271 35.4276 25.8154C35.4159 25.8021 35.4101 25.7854 35.4101 25.7654C35.4101 25.7437 35.4167 25.7262 35.4301 25.7129C35.4451 25.6979 35.4717 25.6837 35.5101 25.6704L35.9226 25.5254C35.9776 25.5054 36.0209 25.4912 36.0526 25.4829C36.0859 25.4746 36.1142 25.4704 36.1376 25.4704C36.1826 25.4704 36.2159 25.4821 36.2376 25.5054C36.2609 25.5287 36.2726 25.5612 36.2726 25.6029ZM39.1509 27.6929C39.1509 27.7712 39.1276 27.8312 39.0809 27.8729C39.0359 27.9129 38.9692 27.9329 38.8809 27.9329H37.2834V27.7704H38.4859C38.5692 27.7704 38.6109 27.7337 38.6109 27.6604C38.6109 27.4387 38.5626 27.2654 38.4659 27.1404C38.3692 27.0154 38.2401 26.9529 38.0784 26.9529C37.9517 26.9529 37.8401 26.9896 37.7434 27.0629C37.6467 27.1346 37.5709 27.2371 37.5159 27.3704C37.4609 27.5021 37.4334 27.6571 37.4334 27.8354C37.4334 28.1671 37.5126 28.4187 37.6709 28.5904C37.8309 28.7604 38.0401 28.8454 38.2984 28.8454C38.4634 28.8454 38.6067 28.8087 38.7284 28.7354C38.8501 28.6621 38.9359 28.5646 38.9859 28.4429C39.0076 28.4146 39.0251 28.3954 39.0384 28.3854C39.0534 28.3737 39.0701 28.3679 39.0884 28.3679C39.1117 28.3679 39.1284 28.3779 39.1384 28.3979C39.1484 28.4179 39.1534 28.4412 39.1534 28.4679C39.1434 28.6046 39.0934 28.7296 39.0034 28.8429C38.9134 28.9562 38.7934 29.0471 38.6434 29.1154C38.4951 29.1821 38.3259 29.2154 38.1359 29.2154C37.9009 29.2154 37.6934 29.1662 37.5134 29.0679C37.3351 28.9696 37.1959 28.8312 37.0959 28.6529C36.9959 28.4746 36.9459 28.2654 36.9459 28.0254C36.9459 27.7821 36.9942 27.5646 37.0909 27.3729C37.1876 27.1812 37.3259 27.0304 37.5059 26.9204C37.6859 26.8087 37.9001 26.7529 38.1484 26.7529C38.3534 26.7529 38.5309 26.7929 38.6809 26.8729C38.8309 26.9529 38.9467 27.0637 39.0284 27.2054C39.1101 27.3454 39.1509 27.5079 39.1509 27.6929ZM42.896 27.6929C42.896 27.7712 42.8727 27.8312 42.826 27.8729C42.781 27.9129 42.7144 27.9329 42.626 27.9329H41.0285V27.7704H42.231C42.3144 27.7704 42.356 27.7337 42.356 27.6604C42.356 27.4387 42.3077 27.2654 42.211 27.1404C42.1144 27.0154 41.9852 26.9529 41.8235 26.9529C41.6969 26.9529 41.5852 26.9896 41.4885 27.0629C41.3919 27.1346 41.316 27.2371 41.261 27.3704C41.206 27.5021 41.1785 27.6571 41.1785 27.8354C41.1785 28.1671 41.2577 28.4187 41.416 28.5904C41.576 28.7604 41.7852 28.8454 42.0435 28.8454C42.2085 28.8454 42.3519 28.8087 42.4735 28.7354C42.5952 28.6621 42.681 28.5646 42.731 28.4429C42.7527 28.4146 42.7702 28.3954 42.7835 28.3854C42.7985 28.3737 42.8152 28.3679 42.8335 28.3679C42.8569 28.3679 42.8735 28.3779 42.8835 28.3979C42.8935 28.4179 42.8985 28.4412 42.8985 28.4679C42.8885 28.6046 42.8385 28.7296 42.7485 28.8429C42.6585 28.9562 42.5385 29.0471 42.3885 29.1154C42.2402 29.1821 42.071 29.2154 41.881 29.2154C41.646 29.2154 41.4385 29.1662 41.2585 29.0679C41.0802 28.9696 40.941 28.8312 40.841 28.6529C40.741 28.4746 40.691 28.2654 40.691 28.0254C40.691 27.7821 40.7394 27.5646 40.836 27.3729C40.9327 27.1812 41.071 27.0304 41.251 26.9204C41.431 26.8087 41.6452 26.7529 41.8935 26.7529C42.0985 26.7529 42.276 26.7929 42.426 26.8729C42.576 26.9529 42.6919 27.0637 42.7735 27.2054C42.8552 27.3454 42.896 27.5079 42.896 27.6929ZM43.4557 27.0154L43.3257 26.9804C43.2824 26.9687 43.2524 26.9554 43.2357 26.9404C43.2207 26.9237 43.2132 26.9054 43.2132 26.8854C43.2132 26.8587 43.2224 26.8387 43.2407 26.8254C43.259 26.8121 43.284 26.8054 43.3157 26.8054H43.4757C43.5207 26.8054 43.5565 26.7987 43.5832 26.7854C43.6115 26.7704 43.6357 26.7437 43.6557 26.7054L43.8532 26.3429C43.8782 26.3029 43.9032 26.2746 43.9282 26.2579C43.9532 26.2396 43.9799 26.2304 44.0082 26.2304C44.0365 26.2304 44.059 26.2396 44.0757 26.2579C44.0924 26.2762 44.1007 26.3021 44.1007 26.3354V28.5379C44.1007 28.6529 44.124 28.7404 44.1707 28.8004C44.219 28.8604 44.2849 28.8904 44.3682 28.8904C44.4299 28.8904 44.4774 28.8804 44.5107 28.8604C44.5457 28.8387 44.5724 28.8146 44.5907 28.7879C44.6107 28.7596 44.629 28.7354 44.6457 28.7154C44.664 28.6954 44.6865 28.6854 44.7132 28.6854C44.7349 28.6854 44.7507 28.6921 44.7607 28.7054C44.7724 28.7187 44.7782 28.7412 44.7782 28.7729C44.7782 28.8446 44.7524 28.9129 44.7007 28.9779C44.649 29.0429 44.5774 29.0962 44.4857 29.1379C44.3957 29.1796 44.2915 29.2004 44.1732 29.2004C43.9899 29.2004 43.8432 29.1529 43.7332 29.0579C43.6249 28.9612 43.5707 28.8162 43.5707 28.6229V27.1604C43.5707 27.1187 43.5624 27.0871 43.5457 27.0654C43.529 27.0437 43.499 27.0271 43.4557 27.0154ZM43.8632 27.0054V26.8054H44.6507C44.6857 26.8054 44.7124 26.8121 44.7307 26.8254C44.749 26.8371 44.7582 26.8562 44.7582 26.8829C44.7582 26.9179 44.7399 26.9471 44.7032 26.9704C44.6682 26.9937 44.6124 27.0054 44.5357 27.0054H43.8632ZM47.0322 27.8504C47.0322 27.6137 47.0672 27.4137 47.1372 27.2504C47.2072 27.0871 47.298 26.9637 47.4097 26.8804C47.523 26.7954 47.643 26.7529 47.7697 26.7529C47.9214 26.7529 48.0389 26.7946 48.1222 26.8779C48.2072 26.9612 48.2497 27.0771 48.2497 27.2254C48.2497 27.3404 48.2247 27.4279 48.1747 27.4879C48.1264 27.5462 48.063 27.5754 47.9847 27.5754C47.9064 27.5754 47.8455 27.5537 47.8022 27.5104C47.7589 27.4654 47.7372 27.4037 47.7372 27.3254V27.2404C47.7355 27.1837 47.7214 27.1421 47.6947 27.1154C47.6697 27.0871 47.6264 27.0729 47.5647 27.0729C47.493 27.0729 47.423 27.1021 47.3547 27.1604C47.2864 27.2171 47.2305 27.3029 47.1872 27.4179C47.1439 27.5312 47.1222 27.6754 47.1222 27.8504H47.0322ZM47.0922 26.9054L47.1222 27.4854V28.8079C47.1222 28.8512 47.1314 28.8837 47.1497 28.9054C47.1697 28.9271 47.203 28.9412 47.2497 28.9479L47.4747 28.9804C47.5097 28.9854 47.5355 28.9954 47.5522 29.0104C47.5705 29.0254 47.5797 29.0462 47.5797 29.0729C47.5797 29.0996 47.5697 29.1204 47.5497 29.1354C47.5297 29.1504 47.5005 29.1579 47.4622 29.1579H46.3997C46.3614 29.1579 46.333 29.1504 46.3147 29.1354C46.2964 29.1204 46.2872 29.0996 46.2872 29.0729C46.2872 29.0529 46.2939 29.0354 46.3072 29.0204C46.3222 29.0054 46.3447 28.9937 46.3747 28.9854L46.4922 28.9579C46.5255 28.9496 46.5505 28.9346 46.5672 28.9129C46.5839 28.8896 46.5922 28.8554 46.5922 28.8104V27.2679C46.5922 27.2296 46.5855 27.2021 46.5722 27.1854C46.5605 27.1671 46.5397 27.1562 46.5097 27.1529L46.3422 27.1454C46.3122 27.1421 46.2905 27.1346 46.2772 27.1229C46.2655 27.1096 46.2597 27.0929 46.2597 27.0729C46.2597 27.0512 46.2672 27.0337 46.2822 27.0204C46.2972 27.0054 46.323 26.9912 46.3597 26.9779L46.7647 26.8329C46.8314 26.8096 46.8805 26.7937 46.9122 26.7854C46.9455 26.7771 46.9714 26.7729 46.9897 26.7729C47.0214 26.7729 47.0455 26.7829 47.0622 26.8029C47.0789 26.8229 47.0889 26.8571 47.0922 26.9054ZM50.0802 28.8479V28.7979L50.0477 28.7829V27.3554C50.0477 27.2121 50.011 27.1021 49.9377 27.0254C49.866 26.9487 49.7635 26.9104 49.6302 26.9104C49.5035 26.9104 49.4085 26.9362 49.3452 26.9879C49.2819 27.0396 49.2502 27.1021 49.2502 27.1754V27.3729C49.2502 27.4529 49.2235 27.5146 49.1702 27.5579C49.1185 27.6012 49.046 27.6229 48.9527 27.6229C48.871 27.6229 48.8085 27.6021 48.7652 27.5604C48.7219 27.5171 48.7002 27.4604 48.7002 27.3904C48.7002 27.2871 48.7402 27.1871 48.8202 27.0904C48.9019 26.9937 49.0194 26.9137 49.1727 26.8504C49.326 26.7871 49.5119 26.7554 49.7302 26.7554C50.0152 26.7554 50.2269 26.8171 50.3652 26.9404C50.5035 27.0621 50.5727 27.2254 50.5727 27.4304V28.7829C50.5727 28.8362 50.5827 28.8754 50.6027 28.9004C50.6244 28.9254 50.6535 28.9379 50.6902 28.9379C50.7319 28.9379 50.761 28.9287 50.7777 28.9104C50.796 28.8904 50.8119 28.8712 50.8252 28.8529C50.8335 28.8429 50.8419 28.8346 50.8502 28.8279C50.8602 28.8196 50.8719 28.8154 50.8852 28.8154C50.9035 28.8154 50.9169 28.8221 50.9252 28.8354C50.9335 28.8471 50.9377 28.8637 50.9377 28.8854C50.9377 28.9337 50.921 28.9837 50.8877 29.0354C50.8544 29.0854 50.806 29.1279 50.7427 29.1629C50.6794 29.1979 50.6002 29.2154 50.5052 29.2154C50.3735 29.2154 50.2694 29.1846 50.1927 29.1229C50.1177 29.0596 50.0802 28.9679 50.0802 28.8479ZM48.5877 28.6379C48.5877 28.4396 48.676 28.2771 48.8527 28.1504C49.031 28.0237 49.2769 27.9604 49.5902 27.9604C49.7035 27.9604 49.8077 27.9712 49.9027 27.9929C49.9977 28.0129 50.0819 28.0396 50.1552 28.0729L50.1152 28.2104C50.0452 28.1821 49.9735 28.1587 49.9002 28.1404C49.8285 28.1204 49.7494 28.1104 49.6627 28.1104C49.4977 28.1104 49.3685 28.1496 49.2752 28.2279C49.1819 28.3062 49.1352 28.4137 49.1352 28.5504C49.1352 28.6854 49.1727 28.7887 49.2477 28.8604C49.3244 28.9304 49.4219 28.9654 49.5402 28.9654C49.6519 28.9654 49.7594 28.9404 49.8627 28.8904C49.966 28.8387 50.0552 28.7662 50.1302 28.6729L50.1827 28.7904C50.0844 28.9254 49.9569 29.0304 49.8002 29.1054C49.6452 29.1787 49.4802 29.2154 49.3052 29.2154C49.0935 29.2154 48.921 29.1637 48.7877 29.0604C48.6544 28.9554 48.5877 28.8146 48.5877 28.6379ZM52.0523 26.9054V27.2104L52.0723 27.2529V29.9729C52.0723 30.0196 52.0806 30.0546 52.0973 30.0779C52.114 30.1012 52.139 30.1162 52.1723 30.1229L52.3423 30.1479C52.3723 30.1562 52.3948 30.1679 52.4098 30.1829C52.4248 30.1979 52.4323 30.2162 52.4323 30.2379C52.4323 30.2646 52.4223 30.2854 52.4023 30.3004C52.384 30.3154 52.3548 30.3229 52.3148 30.3229H51.3498C51.3115 30.3229 51.2831 30.3154 51.2648 30.3004C51.2465 30.2854 51.2373 30.2646 51.2373 30.2379C51.2373 30.2179 51.244 30.2004 51.2573 30.1854C51.2723 30.1704 51.2948 30.1587 51.3248 30.1504L51.4423 30.1229C51.4756 30.1146 51.5006 30.0987 51.5173 30.0754C51.534 30.0537 51.5423 30.0204 51.5423 29.9754V27.2629C51.5423 27.2246 51.5356 27.1971 51.5223 27.1804C51.5106 27.1637 51.4898 27.1537 51.4598 27.1504L51.2923 27.1429C51.2623 27.1379 51.2406 27.1296 51.2273 27.1179C51.2156 27.1046 51.2098 27.0887 51.2098 27.0704C51.2098 27.0487 51.2165 27.0312 51.2298 27.0179C51.2448 27.0046 51.2715 26.9904 51.3098 26.9754L51.7023 26.8279C51.754 26.8079 51.7965 26.7937 51.8298 26.7854C51.8631 26.7771 51.8923 26.7729 51.9173 26.7729C51.9623 26.7729 51.9956 26.7846 52.0173 26.8079C52.0406 26.8312 52.0523 26.8637 52.0523 26.9054ZM51.9473 27.5054L51.8648 27.3729C51.9931 27.1762 52.1423 27.0237 52.3123 26.9154C52.484 26.8071 52.6698 26.7529 52.8698 26.7529C53.0681 26.7529 53.244 26.8037 53.3973 26.9054C53.5523 27.0054 53.674 27.1446 53.7623 27.3229C53.8523 27.4996 53.8973 27.7021 53.8973 27.9304C53.8973 28.1937 53.8448 28.4221 53.7398 28.6154C53.6365 28.8071 53.4965 28.9554 53.3198 29.0604C53.1431 29.1637 52.9465 29.2154 52.7298 29.2154C52.5315 29.2154 52.354 29.1671 52.1973 29.0704C52.0406 28.9721 51.9148 28.8321 51.8198 28.6504L51.9448 28.5229C52.0315 28.6746 52.1348 28.7896 52.2548 28.8679C52.3765 28.9462 52.5056 28.9854 52.6423 28.9854C52.7756 28.9854 52.8948 28.9487 52.9998 28.8754C53.1048 28.8021 53.1873 28.6921 53.2473 28.5454C53.309 28.3971 53.3398 28.2129 53.3398 27.9929C53.3398 27.7812 53.3106 27.6046 53.2523 27.4629C53.194 27.3212 53.114 27.2146 53.0123 27.1429C52.9106 27.0696 52.794 27.0329 52.6623 27.0329C52.5273 27.0329 52.399 27.0721 52.2773 27.1504C52.1556 27.2287 52.0456 27.3471 51.9473 27.5054ZM55.1642 26.9054V28.8079C55.1642 28.8546 55.1725 28.8896 55.1892 28.9129C55.2059 28.9346 55.2309 28.9496 55.2642 28.9579L55.3767 28.9829C55.4067 28.9929 55.4284 29.0054 55.4417 29.0204C55.4567 29.0337 55.4642 29.0512 55.4642 29.0729C55.4642 29.0996 55.455 29.1204 55.4367 29.1354C55.4184 29.1504 55.3892 29.1579 55.3492 29.1579H54.4417C54.4034 29.1579 54.375 29.1504 54.3567 29.1354C54.3384 29.1204 54.3292 29.0996 54.3292 29.0729C54.3292 29.0529 54.3359 29.0354 54.3492 29.0204C54.3642 29.0054 54.3867 28.9937 54.4167 28.9854L54.5342 28.9579C54.5675 28.9496 54.5925 28.9346 54.6092 28.9129C54.6259 28.8896 54.6342 28.8554 54.6342 28.8104V27.2629C54.6342 27.2246 54.6275 27.1971 54.6142 27.1804C54.6025 27.1637 54.5817 27.1537 54.5517 27.1504L54.3842 27.1429C54.3542 27.1379 54.3325 27.1296 54.3192 27.1179C54.3075 27.1046 54.3017 27.0887 54.3017 27.0704C54.3017 27.0487 54.3084 27.0304 54.3217 27.0154C54.3367 27.0004 54.3634 26.9862 54.4017 26.9729L54.8142 26.8279C54.8692 26.8079 54.9125 26.7937 54.9442 26.7854C54.9775 26.7771 55.0059 26.7729 55.0292 26.7729C55.0742 26.7729 55.1075 26.7846 55.1292 26.8079C55.1525 26.8312 55.1642 26.8637 55.1642 26.9054ZM54.8417 26.3079C54.7334 26.3079 54.645 26.2779 54.5767 26.2179C54.51 26.1579 54.4767 26.0812 54.4767 25.9879C54.4767 25.8929 54.51 25.8162 54.5767 25.7579C54.645 25.6996 54.7334 25.6704 54.8417 25.6704C54.9517 25.6704 55.04 25.7004 55.1067 25.7604C55.175 25.8187 55.2092 25.8946 55.2092 25.9879C55.2092 26.0812 55.175 26.1579 55.1067 26.2179C55.04 26.2779 54.9517 26.3079 54.8417 26.3079ZM57.6629 28.7479L57.6479 28.7304V25.9604C57.6479 25.9221 57.6412 25.8946 57.6279 25.8779C57.6162 25.8596 57.5954 25.8487 57.5654 25.8454L57.3954 25.8379C57.367 25.8346 57.3462 25.8271 57.3329 25.8154C57.3212 25.8021 57.3154 25.7854 57.3154 25.7654C57.3154 25.7437 57.322 25.7262 57.3354 25.7129C57.3504 25.6979 57.377 25.6837 57.4154 25.6704L57.8254 25.5254C57.8787 25.5054 57.922 25.4912 57.9554 25.4829C57.9887 25.4746 58.0195 25.4704 58.0479 25.4704C58.0895 25.4704 58.1212 25.4821 58.1429 25.5054C58.1645 25.5287 58.1754 25.5612 58.1754 25.6029V28.8079C58.1754 28.8546 58.1837 28.8896 58.2004 28.9129C58.2187 28.9346 58.2445 28.9496 58.2779 28.9579L58.3879 28.9829C58.4195 28.9929 58.442 29.0054 58.4554 29.0204C58.4704 29.0337 58.4779 29.0512 58.4779 29.0729C58.4779 29.0996 58.4679 29.1204 58.4479 29.1354C58.4295 29.1504 58.4012 29.1579 58.3629 29.1579H57.9154C57.8387 29.1579 57.777 29.1362 57.7304 29.0929C57.6854 29.0479 57.6629 28.9846 57.6629 28.9029V28.7479ZM55.8229 28.0379C55.8229 27.7746 55.8745 27.5471 55.9779 27.3554C56.0829 27.1637 56.2229 27.0154 56.3979 26.9104C56.5745 26.8054 56.7712 26.7529 56.9879 26.7529C57.1879 26.7529 57.3654 26.8021 57.5204 26.9004C57.677 26.9987 57.8029 27.1379 57.8979 27.3179L57.7729 27.4479C57.6879 27.2962 57.5845 27.1812 57.4629 27.1029C57.3429 27.0246 57.2137 26.9854 57.0754 26.9854C56.9437 26.9854 56.8245 27.0221 56.7179 27.0954C56.6129 27.1671 56.5295 27.2762 56.4679 27.4229C56.4079 27.5696 56.3779 27.7546 56.3779 27.9779C56.3779 28.1879 56.407 28.3646 56.4654 28.5079C56.5254 28.6496 56.6062 28.7562 56.7079 28.8279C56.8095 28.8996 56.9254 28.9354 57.0554 28.9354C57.192 28.9354 57.3204 28.8962 57.4404 28.8179C57.562 28.7396 57.6729 28.6221 57.7729 28.4654L57.8554 28.5979C57.727 28.7929 57.577 28.9446 57.4054 29.0529C57.2354 29.1612 57.0495 29.2154 56.8479 29.2154C56.6512 29.2154 56.4754 29.1654 56.3204 29.0654C56.1654 28.9637 56.0437 28.8246 55.9554 28.6479C55.867 28.4712 55.8229 28.2679 55.8229 28.0379ZM61.065 27.6929C61.065 27.7712 61.0416 27.8312 60.995 27.8729C60.95 27.9129 60.8833 27.9329 60.795 27.9329H59.1975V27.7704H60.4C60.4833 27.7704 60.525 27.7337 60.525 27.6604C60.525 27.4387 60.4766 27.2654 60.38 27.1404C60.2833 27.0154 60.1541 26.9529 59.9925 26.9529C59.8658 26.9529 59.7541 26.9896 59.6575 27.0629C59.5608 27.1346 59.485 27.2371 59.43 27.3704C59.375 27.5021 59.3475 27.6571 59.3475 27.8354C59.3475 28.1671 59.4266 28.4187 59.585 28.5904C59.745 28.7604 59.9541 28.8454 60.2125 28.8454C60.3775 28.8454 60.5208 28.8087 60.6425 28.7354C60.7641 28.6621 60.85 28.5646 60.9 28.4429C60.9216 28.4146 60.9391 28.3954 60.9525 28.3854C60.9675 28.3737 60.9841 28.3679 61.0025 28.3679C61.0258 28.3679 61.0425 28.3779 61.0525 28.3979C61.0625 28.4179 61.0675 28.4412 61.0675 28.4679C61.0575 28.6046 61.0075 28.7296 60.9175 28.8429C60.8275 28.9562 60.7075 29.0471 60.5575 29.1154C60.4091 29.1821 60.24 29.2154 60.05 29.2154C59.815 29.2154 59.6075 29.1662 59.4275 29.0679C59.2491 28.9696 59.11 28.8312 59.01 28.6529C58.91 28.4746 58.86 28.2654 58.86 28.0254C58.86 27.7821 58.9083 27.5646 59.005 27.3729C59.1016 27.1812 59.24 27.0304 59.42 26.9204C59.6 26.8087 59.8141 26.7529 60.0625 26.7529C60.2675 26.7529 60.445 26.7929 60.595 26.8729C60.745 26.9529 60.8608 27.0637 60.9425 27.2054C61.0241 27.3454 61.065 27.5079 61.065 27.6929Z" fill="black"/>
</svg>
