<svg width="40" height="39" viewBox="0 0 40 39" fill="none" xmlns="http://www.w3.org/2000/svg">
<path d="M2 26.4074V8.90741H8.5M0 27.9074C8 27.9074 10.5 32 10 37.4074M0.5 30.4074C5.5 29.9074 8.5 34 7.5 37.9074M0.5 32.9074C3.5 32.5 5.5 33.5 5.5 37.9074" stroke="black"/>
<path d="M29.5 34.4074V37.4074H12" stroke="black" stroke-width="2"/>
<circle cx="1.5" cy="36.4074" r="1.5" fill="black"/>
<path d="M1.5 26.4074V8.90741H8.5" stroke="black" stroke-width="2"/>
<path d="M30 12.9074V8.40741L22 8.4074M22 8.4074C21 -3.59259 9 0.907407 10.5 8.40741M22 8.4074V13.9074M10.5 8.40741V13.9074M10.5 8.40741H20" stroke="black" stroke-width="2"/>
<circle cx="10.5" cy="14.4074" r="2.5" fill="black"/>
<circle cx="21.5" cy="14.4074" r="2.5" fill="black"/>
<path d="M23.371 18.655C23.419 18.745 23.446 18.826 23.452 18.898C23.464 18.97 23.47 19.075 23.47 19.213V24.208C23.47 24.622 23.356 24.865 23.128 24.937C23.014 24.973 22.87 24.991 22.696 24.991C22.522 24.991 22.384 24.976 22.282 24.946C22.18 24.916 22.102 24.88 22.048 24.838C21.994 24.796 21.952 24.736 21.922 24.658C21.892 24.556 21.877 24.4 21.877 24.19V21.175C21.727 21.361 21.508 21.658 21.22 22.066C20.932 22.468 20.749 22.72 20.671 22.822C20.593 22.924 20.539 22.996 20.509 23.038C20.479 23.074 20.404 23.128 20.284 23.2C20.17 23.266 20.044 23.299 19.906 23.299C19.774 23.299 19.651 23.269 19.537 23.209C19.429 23.143 19.351 23.08 19.303 23.02L19.231 22.921C19.111 22.771 18.874 22.453 18.52 21.967C18.166 21.475 17.974 21.211 17.944 21.175V24.208C17.944 24.346 17.938 24.451 17.926 24.523C17.92 24.589 17.893 24.664 17.845 24.748C17.755 24.91 17.521 24.991 17.143 24.991C16.777 24.991 16.549 24.91 16.459 24.748C16.411 24.664 16.381 24.586 16.369 24.514C16.363 24.442 16.36 24.334 16.36 24.19V19.195C16.36 19.057 16.363 18.955 16.369 18.889C16.381 18.817 16.411 18.736 16.459 18.646C16.549 18.49 16.783 18.412 17.161 18.412C17.323 18.412 17.461 18.433 17.575 18.475C17.695 18.511 17.773 18.55 17.809 18.592L17.863 18.646L19.906 21.328C20.926 19.978 21.607 19.087 21.949 18.655C22.051 18.493 22.291 18.412 22.669 18.412C23.053 18.412 23.287 18.493 23.371 18.655ZM28.7631 22.066C28.7631 22.432 28.6701 22.705 28.4841 22.885C28.3041 23.059 28.1031 23.146 27.8811 23.146H25.7481C25.7481 23.314 25.8471 23.455 26.0451 23.569C26.2431 23.683 26.4411 23.74 26.6391 23.74C26.9871 23.74 27.2601 23.704 27.4581 23.632L27.5571 23.596C27.7011 23.53 27.8211 23.497 27.9171 23.497C28.1091 23.497 28.2741 23.632 28.4121 23.902C28.4901 24.064 28.5291 24.202 28.5291 24.316C28.5291 24.85 27.8901 25.117 26.6121 25.117C26.1681 25.117 25.7721 25.042 25.4241 24.892C25.0821 24.736 24.8151 24.532 24.6231 24.28C24.2451 23.794 24.0561 23.251 24.0561 22.651C24.0561 21.895 24.2991 21.292 24.7851 20.842C25.2771 20.386 25.8891 20.158 26.6211 20.158C27.4551 20.158 28.0671 20.452 28.4571 21.04C28.6611 21.352 28.7631 21.694 28.7631 22.066ZM26.8641 22.327C27.0921 22.327 27.2061 22.231 27.2061 22.039C27.2061 21.901 27.1521 21.79 27.0441 21.706C26.9421 21.622 26.7921 21.58 26.5941 21.58C26.4021 21.58 26.2101 21.661 26.0181 21.823C25.8261 21.979 25.7301 22.147 25.7301 22.327H26.8641ZM32.3562 24.406C32.1282 24.706 31.7652 24.856 31.2672 24.856C30.7692 24.856 30.3012 24.628 29.8632 24.172C29.4312 23.71 29.2152 23.173 29.2152 22.561C29.2152 21.949 29.4342 21.412 29.8722 20.95C30.3102 20.488 30.7902 20.257 31.3122 20.257C31.5162 20.257 31.7022 20.296 31.8702 20.374C32.0382 20.446 32.1522 20.515 32.2122 20.581C32.2782 20.641 32.3292 20.698 32.3652 20.752C32.3832 20.584 32.4432 20.458 32.5452 20.374C32.6532 20.284 32.8242 20.239 33.0582 20.239C33.2922 20.239 33.4632 20.257 33.5712 20.293C33.6792 20.329 33.7542 20.392 33.7962 20.482C33.8442 20.566 33.8712 20.641 33.8772 20.707C33.8892 20.773 33.8952 20.875 33.8952 21.013V24.739C33.8952 25.429 33.6552 25.984 33.1752 26.404C32.6952 26.83 32.1552 27.043 31.5552 27.043C31.0992 27.043 30.6642 26.932 30.2502 26.71C29.8362 26.488 29.6292 26.287 29.6292 26.107C29.6292 25.873 29.7192 25.666 29.8992 25.486C30.0132 25.36 30.1002 25.273 30.1602 25.225C30.2262 25.177 30.3012 25.153 30.3852 25.153C30.4692 25.153 30.5562 25.189 30.6462 25.261C30.9342 25.483 31.2462 25.594 31.5822 25.594C31.8102 25.594 31.9962 25.504 32.1402 25.324C32.2842 25.144 32.3562 24.928 32.3562 24.676V24.406ZM30.7542 22.57C30.7542 22.762 30.8292 22.936 30.9792 23.092C31.1352 23.248 31.3212 23.326 31.5372 23.326C31.7592 23.326 31.9422 23.248 32.0862 23.092C32.2302 22.93 32.3022 22.756 32.3022 22.57C32.3022 22.378 32.2332 22.201 32.0952 22.039C31.9572 21.871 31.7712 21.787 31.5372 21.787C31.3032 21.787 31.1142 21.868 30.9702 22.03C30.8262 22.192 30.7542 22.372 30.7542 22.57ZM37.6929 20.761C37.7289 20.425 37.9659 20.257 38.4039 20.257C38.6379 20.257 38.8119 20.275 38.9259 20.311C39.0399 20.347 39.1179 20.41 39.1599 20.5C39.2079 20.59 39.2349 20.671 39.2409 20.743C39.2529 20.809 39.2589 20.911 39.2589 21.049V24.199C39.2589 24.337 39.2529 24.442 39.2409 24.514C39.2349 24.58 39.2109 24.658 39.1689 24.748C39.0849 24.904 38.8779 24.982 38.5479 24.982C38.2239 24.982 38.0049 24.943 37.8909 24.865C37.7829 24.781 37.7199 24.661 37.7019 24.505C37.4799 24.823 37.1079 24.982 36.5859 24.982C36.0699 24.982 35.5899 24.745 35.1459 24.271C34.7019 23.797 34.4799 23.248 34.4799 22.624C34.4799 21.994 34.7019 21.445 35.1459 20.977C35.5959 20.503 36.0879 20.266 36.6219 20.266C36.8259 20.266 37.0119 20.302 37.1799 20.374C37.3479 20.446 37.4649 20.515 37.5309 20.581C37.5969 20.641 37.6509 20.701 37.6929 20.761ZM36.0549 22.633C36.0549 22.831 36.1329 23.011 36.2889 23.173C36.4449 23.329 36.6339 23.407 36.8559 23.407C37.0779 23.407 37.2609 23.326 37.4049 23.164C37.5549 23.002 37.6299 22.825 37.6299 22.633C37.6299 22.435 37.5579 22.252 37.4139 22.084C37.2759 21.916 37.0869 21.832 36.8469 21.832C36.6129 21.832 36.4209 21.916 36.2709 22.084C36.1269 22.252 36.0549 22.435 36.0549 22.633Z" fill="black"/>
<path d="M23.255 31.485C23.1683 31.3783 23.125 31.2833 23.125 31.2C23.125 31.1133 23.1967 31 23.34 30.86C23.4233 30.78 23.5117 30.74 23.605 30.74C23.6983 30.74 23.8283 30.8233 23.995 30.99C24.0417 31.0467 24.1083 31.1017 24.195 31.155C24.2817 31.205 24.3617 31.23 24.435 31.23C24.745 31.23 24.9 31.1033 24.9 30.85C24.9 30.7733 24.8567 30.71 24.77 30.66C24.6867 30.6067 24.5817 30.5683 24.455 30.545C24.3283 30.5217 24.1917 30.485 24.045 30.435C23.8983 30.3817 23.7617 30.32 23.635 30.25C23.5083 30.18 23.4017 30.07 23.315 29.92C23.2317 29.7667 23.19 29.5833 23.19 29.37C23.19 29.0767 23.2983 28.8217 23.515 28.605C23.735 28.385 24.0333 28.275 24.41 28.275C24.61 28.275 24.7917 28.3017 24.955 28.355C25.1217 28.405 25.2367 28.4567 25.3 28.51L25.425 28.605C25.5283 28.7017 25.58 28.7833 25.58 28.85C25.58 28.9167 25.54 29.0083 25.46 29.125C25.3467 29.2917 25.23 29.375 25.11 29.375C25.04 29.375 24.9533 29.3417 24.85 29.275C24.84 29.2683 24.82 29.2517 24.79 29.225C24.7633 29.1983 24.7383 29.1767 24.715 29.16C24.645 29.1167 24.555 29.095 24.445 29.095C24.3383 29.095 24.2483 29.1217 24.175 29.175C24.105 29.225 24.07 29.2967 24.07 29.39C24.07 29.48 24.1117 29.5533 24.195 29.61C24.2817 29.6667 24.3883 29.705 24.515 29.725C24.6417 29.745 24.78 29.7767 24.93 29.82C25.08 29.86 25.2183 29.91 25.345 29.97C25.4717 30.03 25.5767 30.135 25.66 30.285C25.7467 30.4317 25.79 30.6133 25.79 30.83C25.79 31.0467 25.7467 31.2383 25.66 31.405C25.5733 31.5683 25.46 31.695 25.32 31.785C25.05 31.9617 24.7617 32.05 24.455 32.05C24.2983 32.05 24.15 32.0317 24.01 31.995C23.87 31.955 23.7567 31.9067 23.67 31.85C23.4933 31.7433 23.37 31.64 23.3 31.54L23.255 31.485ZM27.575 29.375C27.9084 29.375 28.185 29.5017 28.405 29.755C28.6284 30.0083 28.74 30.3183 28.74 30.685V31.565C28.74 31.6417 28.7367 31.7 28.73 31.74C28.7267 31.7767 28.7117 31.82 28.685 31.87C28.6417 31.9567 28.5134 32 28.3 32C28.0967 32 27.97 31.9567 27.92 31.87C27.8934 31.82 27.8767 31.775 27.87 31.735C27.8667 31.695 27.865 31.635 27.865 31.555V30.68C27.865 30.5433 27.8267 30.4367 27.75 30.36C27.6734 30.2833 27.575 30.245 27.455 30.245C27.3384 30.245 27.235 30.2817 27.145 30.355C27.055 30.425 27.0034 30.505 26.99 30.595V31.565C26.99 31.6417 26.9867 31.7 26.98 31.74C26.9767 31.7767 26.9617 31.82 26.935 31.87C26.8917 31.9567 26.7634 32 26.55 32C26.34 32 26.2117 31.955 26.165 31.865C26.1417 31.815 26.1267 31.7717 26.12 31.735C26.1167 31.6983 26.115 31.64 26.115 31.56V28.57C26.115 28.4933 26.1167 28.4367 26.12 28.4C26.1267 28.36 26.1417 28.3167 26.165 28.27C26.2117 28.18 26.3417 28.135 26.555 28.135C26.765 28.135 26.8917 28.18 26.935 28.27C26.9617 28.32 26.9767 28.365 26.98 28.405C26.9867 28.4417 26.99 28.4983 26.99 28.575V29.68C27.1567 29.4767 27.3517 29.375 27.575 29.375ZM29.0674 30.685C29.0674 30.285 29.2074 29.955 29.4874 29.695C29.7674 29.435 30.0874 29.305 30.4474 29.305C30.8074 29.305 31.1257 29.435 31.4024 29.695C31.679 29.9517 31.8174 30.28 31.8174 30.68C31.8174 30.9567 31.7457 31.2033 31.6024 31.42C31.459 31.6333 31.284 31.7917 31.0774 31.895C30.874 31.995 30.6624 32.045 30.4424 32.045C30.2224 32.045 30.009 31.9917 29.8024 31.885C29.5957 31.775 29.4207 31.615 29.2774 31.405C29.1374 31.1917 29.0674 30.9517 29.0674 30.685ZM30.1124 31.045C30.219 31.125 30.3274 31.165 30.4374 31.165C30.5474 31.165 30.6574 31.1233 30.7674 31.04C30.8774 30.9567 30.9324 30.8333 30.9324 30.67C30.9324 30.5067 30.8807 30.385 30.7774 30.305C30.674 30.225 30.5624 30.185 30.4424 30.185C30.3224 30.185 30.2107 30.2267 30.1074 30.31C30.004 30.3933 29.9524 30.5167 29.9524 30.68C29.9524 30.84 30.0057 30.9617 30.1124 31.045ZM32.1404 32.715V29.795C32.1404 29.7183 32.1421 29.6617 32.1454 29.625C32.1521 29.5883 32.1671 29.5467 32.1904 29.5C32.2371 29.41 32.3488 29.365 32.5254 29.365C32.7021 29.365 32.8204 29.3883 32.8804 29.435C32.9438 29.4783 32.9804 29.5433 32.9904 29.63C33.1171 29.4567 33.3154 29.37 33.5854 29.37C33.8588 29.37 34.1171 29.4983 34.3604 29.755C34.6038 30.0117 34.7254 30.31 34.7254 30.65C34.7254 30.99 34.6038 31.2883 34.3604 31.545C34.1204 31.8017 33.8638 31.93 33.5904 31.93C33.3171 31.93 33.1188 31.8533 32.9954 31.7V32.71C32.9954 32.7867 32.9921 32.8433 32.9854 32.88C32.9821 32.9167 32.9671 32.9583 32.9404 33.005C32.9171 33.055 32.8754 33.09 32.8154 33.11C32.7554 33.13 32.6738 33.14 32.5704 33.14C32.4671 33.14 32.3838 33.13 32.3204 33.11C32.2604 33.09 32.2171 33.0567 32.1904 33.01C32.1671 32.9633 32.1521 32.9217 32.1454 32.885C32.1421 32.8483 32.1404 32.7917 32.1404 32.715ZM33.1304 30.36C33.0538 30.45 33.0154 30.5483 33.0154 30.655C33.0154 30.7617 33.0538 30.86 33.1304 30.95C33.2104 31.0367 33.3104 31.08 33.4304 31.08C33.5538 31.08 33.6571 31.0367 33.7404 30.95C33.8271 30.8633 33.8704 30.765 33.8704 30.655C33.8704 30.545 33.8304 30.4467 33.7504 30.36C33.6704 30.27 33.5654 30.225 33.4354 30.225C33.3088 30.225 33.2071 30.27 33.1304 30.36Z" fill="black"/>
</svg>
