<svg xmlns="http://www.w3.org/2000/svg" version="1.1" xmlns:xlink="http://www.w3.org/1999/xlink" xmlns:svgjs="http://svgjs.dev/svgjs" width="65" height="65"><svg width="65" height="65" viewBox="0 0 65 65" fill="none" xmlns="http://www.w3.org/2000/svg">
<circle cx="32.5" cy="32.5" r="32.5" fill="#F0F0F0"></circle>
<path d="M47.3846 55L37.7692 53.549L36.8077 29.6084L25.2692 41.216L18.5385 29.2457L16.6154 50.2844L7 48.108C7.16026 45.5688 8.15385 36.3553 10.8462 19.8145L21.9038 19.4518L27.1923 25.981L36.3269 18.0008H48.3462C46.4231 20.0563 43.5385 30.3339 47.3846 55Z" fill="black"></path>
<path fill-rule="evenodd" clip-rule="evenodd" d="M49.9722 21.2294C49.7928 19.8655 49.7491 19.0435 49.7885 18.6873C49.8491 19.556 49.9104 20.4033 49.9722 21.2294Z" fill="white"></path>
<path d="M49.7885 55C52.0962 52.0981 55.8782 51.3726 57 51.3726C52.3569 34.7323 50.5237 25.4213 49.9722 21.2294C51.4816 41.3775 53.3457 48.9925 54.1154 49.9217C50.6538 52.2432 49.7885 54.2745 49.7885 55Z" fill="black"></path>
<path d="M48.3462 18.0008C46.4231 20.0563 43.5385 30.3339 47.3846 55L37.7692 53.549L36.8077 29.6084M48.3462 18.0008H36.3269L27.1923 25.981L21.9038 19.4518L10.8462 19.8145C8.15385 36.3553 7.16026 45.5688 7 48.108L16.6154 50.2844L18.5385 29.2457L25.2692 41.216L36.8077 29.6084M48.3462 18.0008L36.8077 29.6084M49.9722 21.2294C51.4816 41.3775 53.3457 48.9925 54.1154 49.9217C50.6538 52.2432 49.7885 54.2745 49.7885 55C52.0962 52.0981 55.8782 51.3726 57 51.3726C52.3569 34.7323 50.5237 25.4213 49.9722 21.2294ZM49.9722 21.2294C49.7928 19.8655 49.7491 19.0435 49.7885 18.6873C49.8491 19.556 49.9104 20.4033 49.9722 21.2294Z" stroke="black"></path>
<path d="M17.0962 19.4518C20.6218 9.65786 32.343 -6.70426 43.4007 17.9619H40.5161C33.4423 3.81512 26.7116 4.2168 20.4616 19.4518H17.0962Z" fill="black" stroke="black"></path>
</svg><style>@media (prefers-color-scheme: light) { :root { filter: none; } }
@media (prefers-color-scheme: dark) { :root { filter: none; } }
</style></svg>